<?xml version="1.0" encoding="UTF-8" standalone="no"?>
<!-- Created with Inkscape (http://www.inkscape.org/) -->

<svg
   xmlns:dc="http://purl.org/dc/elements/1.1/"
   xmlns:cc="http://creativecommons.org/ns#"
   xmlns:rdf="http://www.w3.org/1999/02/22-rdf-syntax-ns#"
   xmlns:svg="http://www.w3.org/2000/svg"
   xmlns="http://www.w3.org/2000/svg"
   xmlns:sodipodi="http://sodipodi.sourceforge.net/DTD/sodipodi-0.dtd"
   xmlns:inkscape="http://www.inkscape.org/namespaces/inkscape"
   id="svg4136"
   version="1.1"
   inkscape:version="0.91 r13725"
   xml:space="preserve"
   width="744.09497"
   height="1052.3625"
   viewBox="0 0 744.09497 1052.3625"
   sodipodi:docname="SB2100TL-DDE1444-V10web.svg"><metadata
     id="metadata4142"><rdf:RDF><cc:Work
         rdf:about=""><dc:format>image/svg+xml</dc:format><dc:type
           rdf:resource="http://purl.org/dc/dcmitype/StillImage" /><dc:title></dc:title></cc:Work></rdf:RDF></metadata><defs
     id="defs4140"><clipPath
       clipPathUnits="userSpaceOnUse"
       id="clipPath6202"><path
         d="m 50.441,622.97 266.457,0 0,147.402 -266.457,0 0,-147.402 z"
         id="path6204"
         inkscape:connector-curvature="0" /></clipPath><clipPath
       clipPathUnits="userSpaceOnUse"
       id="clipPath7196"><path
         d="m 0,0 595.276,0 0,841.89 L 0,841.89 0,0 Z"
         id="path7198"
         inkscape:connector-curvature="0" /></clipPath><clipPath
       clipPathUnits="userSpaceOnUse"
       id="clipPath7208"><path
         d="m 339.338,765.794 c -0.819,-0.369 -1.663,-0.963 -2.257,-1.921 l 0,0 0,-29.502 c 0.426,-0.783 1.078,-1.548 2.075,-2.055 l 0,0 28.751,0 c 0.819,0.369 1.663,0.964 2.256,1.921 l 0,0 0,29.502 c -0.426,0.783 -1.077,1.548 -2.075,2.055 l 0,0 -28.75,0 z"
         id="path7210"
         inkscape:connector-curvature="0" /></clipPath><clipPath
       clipPathUnits="userSpaceOnUse"
       id="clipPath7222"><path
         d="m 0,0 595.276,0 0,841.89 L 0,841.89 0,0 Z"
         id="path7224"
         inkscape:connector-curvature="0" /></clipPath><clipPath
       clipPathUnits="userSpaceOnUse"
       id="clipPath7238"><path
         d="m 444.35,761.769 c -0.045,-0.324 -0.07,-0.67 -0.07,-1.041 l 0,0 0,-23.346 c 0.001,-0.024 0.004,-0.442 0.117,-1.041 l 0,0 34.497,0 c 0.046,0.324 0.07,0.671 0.07,1.042 l 0,0 0,23.345 c 0,0 0,0.424 -0.116,1.041 l 0,0 -34.498,0 z"
         id="path7240"
         inkscape:connector-curvature="0" /></clipPath><clipPath
       clipPathUnits="userSpaceOnUse"
       id="clipPath7252"><path
         d="m 0,0 595.276,0 0,841.89 L 0,841.89 0,0 Z"
         id="path7254"
         inkscape:connector-curvature="0" /></clipPath><clipPath
       clipPathUnits="userSpaceOnUse"
       id="clipPath7268"><path
         d="m 341.95,725.011 c 0,0 -5.67,0 -5.67,-5.67 l 0,0 0,-23.344 c 0,0 0,-5.669 5.67,-5.669 l 0,0 23.345,0 c 0,0 5.669,0 5.669,5.669 l 0,0 0,23.344 c 0,0 0,5.67 -5.669,5.67 l 0,0 -23.345,0 z"
         id="path7270"
         inkscape:connector-curvature="0" /></clipPath><clipPath
       clipPathUnits="userSpaceOnUse"
       id="clipPath7282"><path
         d="m 0,0 595.276,0 0,841.89 L 0,841.89 0,0 Z"
         id="path7284"
         inkscape:connector-curvature="0" /></clipPath></defs><sodipodi:namedview
     pagecolor="#ffffff"
     bordercolor="#666666"
     borderopacity="1"
     objecttolerance="10"
     gridtolerance="10"
     guidetolerance="10"
     inkscape:pageopacity="0"
     inkscape:pageshadow="2"
     inkscape:window-width="1920"
     inkscape:window-height="1017"
     id="namedview4138"
     showgrid="false"
     inkscape:zoom="2.2791634"
     inkscape:cx="200.59958"
     inkscape:cy="849.38162"
     inkscape:window-x="-8"
     inkscape:window-y="-8"
     inkscape:window-maximized="1"
     inkscape:current-layer="g4144" /><g
     id="g4144"
     inkscape:groupmode="layer"
     inkscape:label="SB2100TL-DDE1444-V10web"
     transform="matrix(1.25,0,0,-1.25,0,1052.3625)"><path
       inkscape:connector-curvature="0"
       id="path6208"
       style="fill:#ffffff;fill-opacity:1;fill-rule:evenodd;stroke:none"
       d="m 81.3911,647.2518 215.433,0 c 0.78,0 1.417,0.638 1.417,1.417 l 0,116.221 c 0,0.78 -0.637,1.417 -1.417,1.417 l -215.433,0 c -0.78,0 -1.417,-0.637 -1.417,-1.417 l 0,-116.221 c 0,-0.779 0.637,-1.417 1.417,-1.417" /><path
       d="m 79.974,681.268 218.268,0 0,-17.008 -218.268,0 0,17.008 z"
       style="fill:#dadada;fill-opacity:1;fill-rule:evenodd;stroke:none"
       id="path6210"
       inkscape:connector-curvature="0" /><path
       d="m 79.974,749.299 218.268,0 0,-17.008 -218.268,0 0,17.008 z"
       style="fill:#dadada;fill-opacity:1;fill-rule:evenodd;stroke:none"
       id="path6212"
       inkscape:connector-curvature="0" /><path
       d="m 79.974,715.283 218.268,0 0,-17.008 -218.268,0 0,17.008 z"
       style="fill:#dadada;fill-opacity:1;fill-rule:evenodd;stroke:none"
       id="path6214"
       inkscape:connector-curvature="0" /><path
       inkscape:connector-curvature="0"
       id="path6218"
       style="fill:#000000;fill-opacity:1;fill-rule:nonzero;stroke:none"
       d="m 73.3137,664.4755 c -0.117,0.07 -0.212,0.153 -0.284,0.249 -0.138,0.186 -0.208,0.396 -0.208,0.63 0,0.314 0.114,0.581 0.34,0.8 0.205,0.199 0.466,0.299 0.782,0.299 0.348,0 0.629,-0.121 0.844,-0.364 0.184,-0.207 0.275,-0.451 0.275,-0.732 0,-0.233 -0.075,-0.445 -0.225,-0.639 -0.08,-0.101 -0.172,-0.182 -0.276,-0.243 0.125,-0.06 0.231,-0.14 0.317,-0.237 0.176,-0.203 0.264,-0.446 0.264,-0.727 0,-0.363 -0.129,-0.658 -0.387,-0.885 -0.223,-0.197 -0.494,-0.295 -0.815,-0.295 -0.234,0 -0.451,0.056 -0.65,0.169 -0.201,0.114 -0.353,0.272 -0.454,0.475 -0.078,0.156 -0.117,0.33 -0.117,0.522 0,0.449 0.198,0.775 0.594,0.978 m 0.627,1.57 c -0.193,0 -0.356,-0.067 -0.489,-0.202 -0.137,-0.138 -0.205,-0.3 -0.205,-0.483 0,-0.197 0.068,-0.364 0.205,-0.501 0.133,-0.137 0.296,-0.205 0.489,-0.205 0.194,0 0.358,0.068 0.493,0.205 0.134,0.135 0.202,0.299 0.202,0.492 0,0.195 -0.068,0.359 -0.202,0.492 -0.139,0.135 -0.303,0.202 -0.493,0.202 m -0.011,-1.772 c -0.213,0 -0.395,-0.074 -0.545,-0.223 -0.151,-0.15 -0.226,-0.327 -0.226,-0.53 0,-0.217 0.075,-0.4 0.226,-0.551 0.15,-0.15 0.333,-0.225 0.548,-0.225 0.212,0 0.394,0.075 0.545,0.225 0.15,0.149 0.225,0.328 0.225,0.539 0,0.215 -0.075,0.395 -0.225,0.539 -0.155,0.151 -0.337,0.226 -0.548,0.226" /><path
       inkscape:connector-curvature="0"
       id="path6222"
       style="fill:#000000;fill-opacity:1;fill-rule:nonzero;stroke:none"
       d="m 76.6325,664.4755 c -0.117,0.07 -0.212,0.153 -0.284,0.249 -0.138,0.186 -0.208,0.396 -0.208,0.63 0,0.314 0.114,0.581 0.34,0.8 0.205,0.199 0.466,0.299 0.782,0.299 0.348,0 0.629,-0.121 0.844,-0.364 0.184,-0.207 0.275,-0.451 0.275,-0.732 0,-0.233 -0.075,-0.445 -0.225,-0.639 -0.08,-0.101 -0.172,-0.182 -0.276,-0.243 0.125,-0.06 0.231,-0.14 0.317,-0.237 0.176,-0.203 0.264,-0.446 0.264,-0.727 0,-0.363 -0.129,-0.658 -0.387,-0.885 -0.223,-0.197 -0.494,-0.295 -0.815,-0.295 -0.234,0 -0.451,0.056 -0.65,0.169 -0.201,0.114 -0.353,0.272 -0.454,0.475 -0.078,0.156 -0.117,0.33 -0.117,0.522 0,0.449 0.198,0.775 0.594,0.978 m 0.627,1.57 c -0.193,0 -0.356,-0.067 -0.489,-0.202 -0.137,-0.138 -0.205,-0.3 -0.205,-0.483 0,-0.197 0.068,-0.364 0.205,-0.501 0.133,-0.137 0.296,-0.205 0.489,-0.205 0.194,0 0.358,0.068 0.493,0.205 0.134,0.135 0.202,0.299 0.202,0.492 0,0.195 -0.068,0.359 -0.202,0.492 -0.139,0.135 -0.303,0.202 -0.493,0.202 m -0.011,-1.772 c -0.213,0 -0.395,-0.074 -0.545,-0.223 -0.151,-0.15 -0.226,-0.327 -0.226,-0.53 0,-0.217 0.075,-0.4 0.226,-0.551 0.15,-0.15 0.333,-0.225 0.548,-0.225 0.212,0 0.394,0.075 0.545,0.225 0.15,0.149 0.225,0.328 0.225,0.539 0,0.215 -0.075,0.395 -0.225,0.539 -0.155,0.151 -0.337,0.226 -0.548,0.226" /><path
       inkscape:connector-curvature="0"
       id="path6226"
       style="fill:#000000;fill-opacity:1;fill-rule:nonzero;stroke:none"
       d="m 73.5958,679.1873 -0.334,0.249 0.923,1.281 c -0.131,-0.036 -0.253,-0.053 -0.367,-0.053 -0.343,0 -0.633,0.115 -0.87,0.346 -0.277,0.269 -0.416,0.592 -0.416,0.969 0,0.231 0.058,0.45 0.173,0.657 0.127,0.226 0.301,0.403 0.522,0.53 0.207,0.117 0.433,0.176 0.679,0.176 0.405,0 0.742,-0.145 1.014,-0.434 0.248,-0.262 0.372,-0.565 0.372,-0.911 0,-0.307 -0.111,-0.613 -0.334,-0.92 l -1.362,-1.89 z m 0.313,3.747 c -0.26,0 -0.48,-0.091 -0.662,-0.275 -0.184,-0.184 -0.275,-0.4 -0.275,-0.65 0,-0.264 0.091,-0.489 0.275,-0.674 0.182,-0.184 0.403,-0.276 0.665,-0.276 0.26,0 0.482,0.092 0.665,0.276 0.184,0.183 0.276,0.404 0.276,0.662 0,0.264 -0.092,0.484 -0.276,0.662 -0.187,0.184 -0.41,0.275 -0.668,0.275" /><path
       inkscape:connector-curvature="0"
       id="path6230"
       style="fill:#000000;fill-opacity:1;fill-rule:nonzero;stroke:none"
       d="m 77.2337,683.342 c 0.283,0 0.545,-0.11 0.785,-0.328 0.229,-0.208 0.398,-0.48 0.507,-0.818 0.088,-0.277 0.132,-0.579 0.132,-0.905 0,-0.578 -0.132,-1.065 -0.396,-1.459 -0.125,-0.186 -0.284,-0.336 -0.477,-0.451 -0.18,-0.108 -0.365,-0.161 -0.557,-0.161 -0.285,0 -0.552,0.114 -0.8,0.342 -0.215,0.198 -0.377,0.46 -0.486,0.788 -0.096,0.286 -0.144,0.602 -0.144,0.95 0,0.379 0.066,0.728 0.197,1.048 0.129,0.321 0.312,0.571 0.551,0.75 0.214,0.163 0.444,0.244 0.688,0.244 m -0.009,-0.408 c -0.279,0 -0.508,-0.147 -0.685,-0.442 -0.203,-0.338 -0.305,-0.737 -0.305,-1.198 0,-0.465 0.096,-0.864 0.287,-1.196 0.18,-0.31 0.416,-0.465 0.709,-0.465 0.275,0 0.503,0.15 0.683,0.451 0.203,0.34 0.304,0.738 0.304,1.195 0,0.457 -0.092,0.848 -0.278,1.172 -0.185,0.322 -0.424,0.483 -0.715,0.483" /><path
       inkscape:connector-curvature="0"
       id="path6234"
       style="fill:#000000;fill-opacity:1;fill-rule:nonzero;stroke:none"
       d="m 73.5958,696.3434 -0.334,0.249 0.923,1.281 c -0.131,-0.036 -0.253,-0.053 -0.367,-0.053 -0.343,0 -0.633,0.115 -0.87,0.346 -0.277,0.269 -0.416,0.592 -0.416,0.969 0,0.231 0.058,0.45 0.173,0.657 0.127,0.226 0.301,0.403 0.522,0.53 0.207,0.117 0.433,0.176 0.679,0.176 0.405,0 0.742,-0.145 1.014,-0.434 0.248,-0.262 0.372,-0.565 0.372,-0.911 0,-0.307 -0.111,-0.613 -0.334,-0.92 l -1.362,-1.89 z m 0.313,3.747 c -0.26,0 -0.48,-0.091 -0.662,-0.275 -0.184,-0.184 -0.275,-0.4 -0.275,-0.65 0,-0.264 0.091,-0.489 0.275,-0.674 0.182,-0.184 0.403,-0.276 0.665,-0.276 0.26,0 0.482,0.092 0.665,0.276 0.184,0.183 0.276,0.404 0.276,0.662 0,0.264 -0.092,0.484 -0.276,0.662 -0.187,0.184 -0.41,0.275 -0.668,0.275" /><path
       inkscape:connector-curvature="0"
       id="path6238"
       style="fill:#000000;fill-opacity:1;fill-rule:nonzero;stroke:none"
       d="m 76.7357,696.8564 1.679,0 0,-0.416 -2.584,0 1.453,1.685 c 0.185,0.214 0.34,0.409 0.463,0.583 0.154,0.222 0.231,0.427 0.231,0.615 0,0.236 -0.091,0.429 -0.272,0.577 -0.153,0.127 -0.329,0.19 -0.531,0.19 -0.187,0 -0.353,-0.055 -0.498,-0.167 -0.14,-0.105 -0.23,-0.25 -0.269,-0.433 -0.012,-0.049 -0.022,-0.121 -0.029,-0.217 l -0.449,0 c 0.028,0.295 0.095,0.523 0.202,0.686 0.106,0.162 0.246,0.291 0.419,0.386 0.19,0.102 0.397,0.153 0.621,0.153 0.358,0 0.659,-0.12 0.903,-0.361 0.228,-0.224 0.343,-0.498 0.343,-0.82 0,-0.283 -0.107,-0.57 -0.32,-0.861 -0.123,-0.17 -0.303,-0.392 -0.542,-0.665 l -0.82,-0.935 z" /><path
       inkscape:connector-curvature="0"
       id="path6242"
       style="fill:#000000;fill-opacity:1;fill-rule:nonzero;stroke:none"
       d="m 73.5958,713.1035 -0.334,0.249 0.923,1.281 c -0.131,-0.036 -0.253,-0.053 -0.367,-0.053 -0.343,0 -0.633,0.115 -0.87,0.346 -0.277,0.269 -0.416,0.592 -0.416,0.969 0,0.231 0.058,0.45 0.173,0.657 0.127,0.226 0.301,0.403 0.522,0.53 0.207,0.117 0.433,0.176 0.679,0.176 0.405,0 0.742,-0.145 1.014,-0.434 0.248,-0.262 0.372,-0.565 0.372,-0.911 0,-0.307 -0.111,-0.613 -0.334,-0.92 l -1.362,-1.89 z m 0.313,3.747 c -0.26,0 -0.48,-0.091 -0.662,-0.275 -0.184,-0.184 -0.275,-0.4 -0.275,-0.65 0,-0.264 0.091,-0.489 0.275,-0.674 0.182,-0.184 0.403,-0.276 0.665,-0.276 0.26,0 0.482,0.092 0.665,0.276 0.184,0.183 0.276,0.404 0.276,0.662 0,0.264 -0.092,0.484 -0.276,0.662 -0.187,0.184 -0.41,0.275 -0.668,0.275" /><path
       inkscape:connector-curvature="0"
       id="path6246"
       style="fill:#000000;fill-opacity:1;fill-rule:nonzero;stroke:none"
       d="m 78.1357,714.2615 0.493,0 0,-0.405 -0.493,0 0,-0.656 -0.445,0 0,0.656 -2.051,0 2.496,3.566 0,-3.161 z m -0.445,0 0,1.807 -1.269,-1.807 1.269,0 z" /><path
       inkscape:connector-curvature="0"
       id="path6250"
       style="fill:#000000;fill-opacity:1;fill-rule:nonzero;stroke:none"
       d="m 73.5958,730.1709 -0.334,0.249 0.923,1.281 c -0.131,-0.036 -0.253,-0.053 -0.367,-0.053 -0.343,0 -0.633,0.115 -0.87,0.346 -0.277,0.269 -0.416,0.592 -0.416,0.969 0,0.231 0.058,0.45 0.173,0.657 0.127,0.226 0.301,0.403 0.522,0.53 0.207,0.117 0.433,0.176 0.679,0.176 0.405,0 0.742,-0.145 1.014,-0.434 0.248,-0.262 0.372,-0.565 0.372,-0.911 0,-0.307 -0.111,-0.613 -0.334,-0.92 l -1.362,-1.89 z m 0.313,3.747 c -0.26,0 -0.48,-0.091 -0.662,-0.275 -0.184,-0.184 -0.275,-0.4 -0.275,-0.65 0,-0.264 0.091,-0.489 0.275,-0.674 0.182,-0.184 0.403,-0.276 0.665,-0.276 0.26,0 0.482,0.092 0.665,0.276 0.184,0.183 0.276,0.404 0.276,0.662 0,0.264 -0.092,0.484 -0.276,0.662 -0.187,0.184 -0.41,0.275 -0.668,0.275" /><path
       inkscape:connector-curvature="0"
       id="path6254"
       style="fill:#000000;fill-opacity:1;fill-rule:nonzero;stroke:none"
       d="m 77.5416,734.3668 0.334,-0.252 -0.923,-1.281 c 0.131,0.038 0.255,0.056 0.372,0.056 0.34,0 0.628,-0.115 0.864,-0.346 0.277,-0.271 0.416,-0.595 0.416,-0.972 0,-0.231 -0.058,-0.45 -0.173,-0.659 -0.127,-0.229 -0.3,-0.406 -0.518,-0.531 -0.207,-0.119 -0.435,-0.178 -0.683,-0.178 -0.402,0 -0.74,0.145 -1.014,0.436 -0.246,0.262 -0.369,0.566 -0.369,0.914 0,0.311 0.11,0.618 0.328,0.923 l 1.366,1.89 z m -0.317,-1.872 c -0.258,0 -0.478,-0.092 -0.662,-0.276 -0.183,-0.183 -0.275,-0.404 -0.275,-0.662 0,-0.26 0.092,-0.481 0.275,-0.665 0.182,-0.184 0.403,-0.275 0.665,-0.275 0.262,0 0.483,0.091 0.662,0.275 0.184,0.186 0.276,0.403 0.276,0.653 0,0.27 -0.092,0.494 -0.276,0.674 -0.185,0.184 -0.407,0.276 -0.665,0.276" /><path
       inkscape:connector-curvature="0"
       id="path6258"
       style="fill:#000000;fill-opacity:1;fill-rule:nonzero;stroke:none"
       d="m 73.5958,747.1904 -0.334,0.249 0.923,1.281 c -0.131,-0.036 -0.253,-0.053 -0.367,-0.053 -0.343,0 -0.633,0.115 -0.87,0.346 -0.277,0.269 -0.416,0.592 -0.416,0.969 0,0.231 0.058,0.45 0.173,0.657 0.127,0.226 0.301,0.403 0.522,0.53 0.207,0.117 0.433,0.176 0.679,0.176 0.405,0 0.742,-0.145 1.014,-0.434 0.248,-0.262 0.372,-0.565 0.372,-0.911 0,-0.307 -0.111,-0.613 -0.334,-0.92 l -1.362,-1.89 z m 0.313,3.747 c -0.26,0 -0.48,-0.091 -0.662,-0.275 -0.184,-0.184 -0.275,-0.4 -0.275,-0.65 0,-0.264 0.091,-0.489 0.275,-0.674 0.182,-0.184 0.403,-0.276 0.665,-0.276 0.26,0 0.482,0.092 0.665,0.276 0.184,0.183 0.276,0.404 0.276,0.662 0,0.264 -0.092,0.484 -0.276,0.662 -0.187,0.184 -0.41,0.275 -0.668,0.275" /><path
       inkscape:connector-curvature="0"
       id="path6262"
       style="fill:#000000;fill-opacity:1;fill-rule:nonzero;stroke:none"
       d="m 76.6325,749.3674 c -0.117,0.07 -0.212,0.153 -0.284,0.249 -0.138,0.186 -0.208,0.396 -0.208,0.63 0,0.314 0.114,0.581 0.34,0.8 0.205,0.199 0.466,0.299 0.782,0.299 0.348,0 0.629,-0.121 0.844,-0.364 0.184,-0.207 0.275,-0.451 0.275,-0.732 0,-0.233 -0.075,-0.445 -0.225,-0.639 -0.08,-0.101 -0.172,-0.182 -0.276,-0.243 0.125,-0.06 0.231,-0.14 0.317,-0.237 0.176,-0.203 0.264,-0.446 0.264,-0.727 0,-0.363 -0.129,-0.658 -0.387,-0.885 -0.223,-0.197 -0.494,-0.295 -0.815,-0.295 -0.234,0 -0.451,0.056 -0.65,0.169 -0.201,0.114 -0.353,0.272 -0.454,0.475 -0.078,0.156 -0.117,0.33 -0.117,0.522 0,0.449 0.198,0.775 0.594,0.978 m 0.627,1.57 c -0.193,0 -0.356,-0.067 -0.489,-0.202 -0.137,-0.138 -0.205,-0.3 -0.205,-0.483 0,-0.197 0.068,-0.364 0.205,-0.501 0.133,-0.137 0.296,-0.205 0.489,-0.205 0.194,0 0.358,0.068 0.493,0.205 0.134,0.135 0.202,0.299 0.202,0.492 0,0.195 -0.068,0.359 -0.202,0.492 -0.139,0.135 -0.303,0.202 -0.493,0.202 m -0.011,-1.772 c -0.213,0 -0.395,-0.074 -0.545,-0.223 -0.151,-0.15 -0.226,-0.327 -0.226,-0.53 0,-0.217 0.075,-0.4 0.226,-0.551 0.15,-0.15 0.333,-0.225 0.548,-0.225 0.212,0 0.394,0.075 0.545,0.225 0.15,0.149 0.225,0.328 0.225,0.539 0,0.215 -0.075,0.395 -0.225,0.539 -0.155,0.151 -0.337,0.226 -0.548,0.226" /><path
       inkscape:connector-curvature="0"
       id="path6266"
       style="fill:none;stroke:#878787;stroke-width:0.25;stroke-linecap:butt;stroke-linejoin:miter;stroke-miterlimit:22.9260006;stroke-dasharray:none;stroke-opacity:1"
       d="m 210.9344,766.307 0,-119.055 m -43.654,119.055 0,-119.055" /><path
       inkscape:connector-curvature="0"
       id="path6278"
       style="fill:none;stroke:#878787;stroke-width:0.25;stroke-linecap:butt;stroke-linejoin:miter;stroke-miterlimit:22.9260006;stroke-dasharray:none;stroke-opacity:1"
       d="m 254.5879,766.307 0,-119.055" /><path
       inkscape:connector-curvature="0"
       id="path6290"
       style="fill:none;stroke:#878787;stroke-width:0.25;stroke-linecap:butt;stroke-linejoin:miter;stroke-miterlimit:22.9260006;stroke-dasharray:none;stroke-opacity:1"
       d="m 123.6273,766.307 0,-119.055" /><path
       inkscape:connector-curvature="0"
       id="path6386"
       style="fill:#000000;fill-opacity:1;fill-rule:nonzero;stroke:none"
       d="m 70.4754,766.8867 -0.662,0 0.234,0.416 0.876,0 0,-3.999 -0.448,0 0,3.583 z" /><path
       inkscape:connector-curvature="0"
       id="path6390"
       style="fill:#000000;fill-opacity:1;fill-rule:nonzero;stroke:none"
       d="m 73.9144,767.3615 c 0.283,0 0.545,-0.11 0.785,-0.328 0.229,-0.208 0.398,-0.48 0.507,-0.818 0.088,-0.277 0.132,-0.579 0.132,-0.905 0,-0.578 -0.132,-1.065 -0.396,-1.459 -0.125,-0.186 -0.284,-0.336 -0.477,-0.451 -0.18,-0.108 -0.365,-0.161 -0.557,-0.161 -0.285,0 -0.552,0.114 -0.8,0.342 -0.215,0.198 -0.377,0.46 -0.486,0.788 -0.096,0.286 -0.144,0.602 -0.144,0.95 0,0.379 0.066,0.728 0.197,1.048 0.129,0.321 0.312,0.571 0.551,0.75 0.214,0.163 0.444,0.244 0.688,0.244 m -0.009,-0.408 c -0.279,0 -0.508,-0.147 -0.685,-0.442 -0.203,-0.338 -0.305,-0.737 -0.305,-1.198 0,-0.465 0.096,-0.864 0.287,-1.196 0.18,-0.31 0.416,-0.465 0.709,-0.465 0.275,0 0.503,0.15 0.683,0.451 0.203,0.34 0.304,0.738 0.304,1.195 0,0.457 -0.092,0.848 -0.278,1.172 -0.185,0.322 -0.424,0.483 -0.715,0.483" /><path
       inkscape:connector-curvature="0"
       id="path6394"
       style="fill:#000000;fill-opacity:1;fill-rule:nonzero;stroke:none"
       d="m 77.2332,767.3615 c 0.283,0 0.545,-0.11 0.785,-0.328 0.229,-0.208 0.398,-0.48 0.507,-0.818 0.088,-0.277 0.132,-0.579 0.132,-0.905 0,-0.578 -0.132,-1.065 -0.396,-1.459 -0.125,-0.186 -0.284,-0.336 -0.477,-0.451 -0.18,-0.108 -0.365,-0.161 -0.557,-0.161 -0.285,0 -0.552,0.114 -0.8,0.342 -0.215,0.198 -0.377,0.46 -0.486,0.788 -0.096,0.286 -0.144,0.602 -0.144,0.95 0,0.379 0.066,0.728 0.197,1.048 0.129,0.321 0.312,0.571 0.551,0.75 0.214,0.163 0.444,0.244 0.688,0.244 m -0.009,-0.408 c -0.279,0 -0.508,-0.147 -0.685,-0.442 -0.203,-0.338 -0.305,-0.737 -0.305,-1.198 0,-0.465 0.096,-0.864 0.287,-1.196 0.18,-0.31 0.416,-0.465 0.709,-0.465 0.275,0 0.503,0.15 0.683,0.451 0.203,0.34 0.304,0.738 0.304,1.195 0,0.457 -0.092,0.848 -0.278,1.172 -0.185,0.322 -0.424,0.483 -0.715,0.483" /><path
       inkscape:connector-curvature="0"
       id="path6398"
       style="fill:#000000;fill-opacity:1;fill-rule:nonzero;stroke:none"
       d="m 73.3137,649.1125 c -0.117,0.07 -0.212,0.153 -0.284,0.249 -0.138,0.186 -0.208,0.396 -0.208,0.63 0,0.314 0.114,0.581 0.34,0.8 0.205,0.199 0.466,0.299 0.782,0.299 0.348,0 0.629,-0.121 0.844,-0.364 0.184,-0.207 0.275,-0.451 0.275,-0.732 0,-0.233 -0.075,-0.445 -0.225,-0.639 -0.08,-0.101 -0.172,-0.182 -0.276,-0.243 0.125,-0.06 0.231,-0.14 0.317,-0.237 0.176,-0.203 0.264,-0.446 0.264,-0.727 0,-0.363 -0.129,-0.658 -0.387,-0.885 -0.223,-0.197 -0.494,-0.295 -0.815,-0.295 -0.234,0 -0.451,0.056 -0.65,0.169 -0.201,0.114 -0.353,0.272 -0.454,0.475 -0.078,0.156 -0.117,0.33 -0.117,0.522 0,0.449 0.198,0.775 0.594,0.978 m 0.627,1.57 c -0.193,0 -0.356,-0.067 -0.489,-0.202 -0.137,-0.138 -0.205,-0.3 -0.205,-0.483 0,-0.197 0.068,-0.364 0.205,-0.501 0.133,-0.137 0.296,-0.205 0.489,-0.205 0.194,0 0.358,0.068 0.493,0.205 0.134,0.135 0.202,0.299 0.202,0.492 0,0.195 -0.068,0.359 -0.202,0.492 -0.139,0.135 -0.303,0.202 -0.493,0.202 m -0.011,-1.772 c -0.213,0 -0.395,-0.074 -0.545,-0.223 -0.151,-0.15 -0.226,-0.327 -0.226,-0.53 0,-0.217 0.075,-0.4 0.226,-0.551 0.15,-0.15 0.333,-0.225 0.548,-0.225 0.212,0 0.394,0.075 0.545,0.225 0.15,0.149 0.225,0.328 0.225,0.539 0,0.215 -0.075,0.395 -0.225,0.539 -0.155,0.151 -0.337,0.226 -0.548,0.226" /><path
       inkscape:connector-curvature="0"
       id="path6402"
       style="fill:#000000;fill-opacity:1;fill-rule:nonzero;stroke:none"
       d="m 77.5416,651.1313 0.334,-0.252 -0.923,-1.281 c 0.131,0.038 0.255,0.056 0.372,0.056 0.34,0 0.628,-0.115 0.864,-0.346 0.277,-0.271 0.416,-0.595 0.416,-0.972 0,-0.231 -0.058,-0.45 -0.173,-0.659 -0.127,-0.229 -0.3,-0.406 -0.518,-0.531 -0.207,-0.119 -0.435,-0.178 -0.683,-0.178 -0.402,0 -0.74,0.145 -1.014,0.436 -0.246,0.262 -0.369,0.566 -0.369,0.914 0,0.311 0.11,0.618 0.328,0.923 l 1.366,1.89 z m -0.317,-1.872 c -0.258,0 -0.478,-0.092 -0.662,-0.276 -0.183,-0.183 -0.275,-0.404 -0.275,-0.662 0,-0.26 0.092,-0.481 0.275,-0.665 0.182,-0.184 0.403,-0.275 0.665,-0.275 0.262,0 0.483,0.091 0.662,0.275 0.184,0.186 0.276,0.403 0.276,0.653 0,0.27 -0.092,0.494 -0.276,0.674 -0.185,0.184 -0.407,0.276 -0.665,0.276" /><path
       inkscape:connector-curvature="0"
       id="path6446"
       style="fill:none;stroke:#00ffff;stroke-width:0.75;stroke-linecap:butt;stroke-linejoin:miter;stroke-miterlimit:22.9260006;stroke-dasharray:none;stroke-opacity:1"
       d="m 89.3672,647.2354 c 1.212,10.909 2.555,17.271 3.707,23.473 1.452,7.828 2.907,12.341 4.359,16.984 1.455,4.643 2.907,7.808 4.362,10.874 1.452,3.062 2.907,5.348 4.359,7.511 1.455,2.163 2.907,3.866 4.362,5.467 1.452,1.598 2.907,2.906 4.359,4.132 1.455,1.223 2.906,2.249 4.362,3.209 1.314,0.869 2.054,1.489 4.358,2.548 2.546,1.169 7.269,3.257 10.902,4.466 3.633,1.209 7.266,2.024 10.902,2.79 3.633,0.763 7.265,1.305 10.898,1.802 3.633,0.497 7.269,0.855 10.902,1.179 3.633,0.32 7.265,0.551 10.902,0.753 3.633,0.2 7.265,0.34 10.898,0.456 3.636,0.112 7.269,0.184 10.902,0.235 3.632,0.051 7.265,0.068 10.902,0.071 3.633,0 7.265,-0.023 10.898,-0.057 3.636,-0.038 7.269,-0.092 10.902,-0.157 3.632,-0.068 7.269,-0.147 10.902,-0.239 3.632,-0.088 7.265,-0.19 10.898,-0.303 3.636,-0.109 7.269,-0.228 10.902,-0.354 3.632,-0.126 7.269,-0.262 10.901,-0.402 3.633,-0.14 7.266,-0.286 10.902,-0.44 3.633,-0.149 7.266,-0.306 10.899,-0.469 l 0.234,-0.011" /><path
       d="m 80.824163,647.25185 216.567047,0 c 0.4676,0 0.85063,0.38195 0.85063,0.85035 l 0,117.35401 c 0,0.46839 -0.38303,0.85035 -0.85063,0.85035 l -216.567047,0 c -0.467597,0 -0.850629,-0.38196 -0.850629,-0.85035 l 0,-117.35401 c 0,-0.4684 0.383032,-0.85035 0.850629,-0.85035 z"
       style="fill:none;stroke:#878787;stroke-width:0.49700001;stroke-linecap:butt;stroke-linejoin:miter;stroke-miterlimit:22.9260006;stroke-dasharray:none;stroke-opacity:1"
       id="path6456"
       inkscape:connector-curvature="0" /><path
       d="m 58.60647,682.80771 3.5,1.26 -3.739,1.486 3.739,1.401 -3.5,1.392 0,0.576 4.908,-1.984 -3.732,-1.396 3.736,-1.496 -4.912,-1.818 0,0.579 z"
       style="fill:#000000;fill-opacity:1;fill-rule:nonzero;stroke:none"
       id="path6732"
       inkscape:connector-curvature="0" /><path
       inkscape:connector-curvature="0"
       id="path6736"
       style="fill:#000000;fill-opacity:1;fill-rule:nonzero;stroke:none"
       d="m 60.36337,689.88811 2.908,0 0,-0.507 -2.908,0 0,0.507 z m -1.449,-0.25 c 0,0.099 0.034,0.183 0.103,0.252 0.07,0.072 0.154,0.108 0.252,0.108 0.1,0 0.185,-0.036 0.253,-0.108 0.071,-0.069 0.106,-0.154 0.106,-0.256 0,-0.099 -0.035,-0.185 -0.106,-0.253 -0.07,-0.073 -0.156,-0.108 -0.257,-0.108 -0.095,0 -0.178,0.035 -0.248,0.108 -0.069,0.071 -0.103,0.157 -0.103,0.257" /><path
       d="m 60.36367,690.79991 0,0.507 0.314,0 c -0.116,0.097 -0.199,0.174 -0.247,0.233 -0.093,0.114 -0.14,0.26 -0.14,0.433 0,0.146 0.043,0.296 0.128,0.451 l 0.45,-0.239 c -0.068,-0.104 -0.101,-0.203 -0.101,-0.295 0,-0.133 0.044,-0.251 0.133,-0.358 0.081,-0.097 0.205,-0.162 0.368,-0.194 0.117,-0.021 0.275,-0.031 0.472,-0.031 l 1.531,0 0,-0.507 -2.908,0 z"
       style="fill:#000000;fill-opacity:1;fill-rule:nonzero;stroke:none"
       id="path6742"
       inkscape:connector-curvature="0" /><path
       d="m 58.16567,693.36811 3.271,0 -1.073,1.068 0,0.673 1.236,-1.262 1.672,1.502 0,-0.662 -1.323,-1.195 0.127,-0.124 1.196,0 0,-0.507 -5.106,0 0,0.507 z"
       style="fill:#000000;fill-opacity:1;fill-rule:nonzero;stroke:none"
       id="path6748"
       inkscape:connector-curvature="0" /><path
       d="m 60.36367,696.20051 1.699,0 c 0.25,0 0.431,0.03 0.543,0.09 0.098,0.053 0.173,0.134 0.225,0.243 0.05,0.102 0.076,0.211 0.076,0.329 0,0.177 -0.049,0.325 -0.147,0.445 -0.087,0.106 -0.21,0.173 -0.37,0.197 -0.081,0.015 -0.191,0.021 -0.327,0.021 l -1.699,0 0,0.506 1.753,0 c 0.276,0 0.487,-0.034 0.633,-0.102 0.209,-0.099 0.368,-0.256 0.478,-0.477 0.086,-0.175 0.129,-0.372 0.129,-0.59 0,-0.379 -0.121,-0.68 -0.365,-0.902 -0.13,-0.118 -0.274,-0.195 -0.43,-0.229 -0.124,-0.025 -0.272,-0.038 -0.445,-0.038 l -1.753,0 0,0.507 z"
       style="fill:#000000;fill-opacity:1;fill-rule:nonzero;stroke:none"
       id="path6754"
       inkscape:connector-curvature="0" /><path
       d="m 60.36367,698.94531 0,0.507 0.352,0 c -0.112,0.093 -0.194,0.176 -0.246,0.249 -0.116,0.164 -0.175,0.364 -0.175,0.597 0,0.243 0.064,0.455 0.191,0.636 0.124,0.178 0.305,0.291 0.544,0.34 0.112,0.023 0.258,0.035 0.438,0.035 l 1.804,0 0,-0.507 -1.719,0 c -0.271,0 -0.459,-0.032 -0.564,-0.098 -0.162,-0.099 -0.242,-0.272 -0.242,-0.52 0,-0.296 0.115,-0.499 0.345,-0.611 0.163,-0.08 0.406,-0.121 0.728,-0.121 l 1.452,0 0,-0.507 -2.908,0 z"
       style="fill:#000000;fill-opacity:1;fill-rule:nonzero;stroke:none"
       id="path6760"
       inkscape:connector-curvature="0" /><path
       d="m 60.36367,704.96331 2.843,0 c 0.363,0 0.63,-0.032 0.804,-0.097 0.303,-0.111 0.534,-0.311 0.694,-0.601 0.125,-0.226 0.188,-0.483 0.188,-0.769 0,-0.433 -0.13,-0.78 -0.386,-1.042 -0.242,-0.245 -0.559,-0.374 -0.951,-0.389 l 0,0.504 c 0.214,0.018 0.378,0.063 0.492,0.135 0.124,0.081 0.22,0.195 0.287,0.34 0.069,0.146 0.103,0.301 0.103,0.465 0,0.341 -0.119,0.593 -0.356,0.756 -0.18,0.129 -0.443,0.191 -0.789,0.191 l -0.424,0 c 0.322,-0.289 0.482,-0.636 0.482,-1.04 0,-0.412 -0.156,-0.757 -0.468,-1.035 -0.278,-0.246 -0.629,-0.368 -1.053,-0.368 -0.472,0 -0.853,0.149 -1.142,0.445 -0.261,0.268 -0.393,0.596 -0.393,0.982 0,0.41 0.161,0.749 0.482,1.016 l -0.413,0 0,0.507 z m 0.383,-1.464 c 0,-0.32 0.129,-0.575 0.389,-0.764 0.187,-0.136 0.415,-0.205 0.687,-0.205 0.326,0 0.583,0.09 0.769,0.268 0.206,0.192 0.308,0.423 0.308,0.694 0,0.312 -0.12,0.567 -0.359,0.764 -0.18,0.149 -0.417,0.225 -0.711,0.225 -0.362,0 -0.638,-0.106 -0.827,-0.32 -0.171,-0.192 -0.256,-0.412 -0.256,-0.662"
       style="fill:#000000;fill-opacity:1;fill-rule:nonzero;stroke:none"
       id="path6766"
       inkscape:connector-curvature="0" /><path
       d="m 60.82427,707.49011 0.216,-0.421 c -0.194,-0.103 -0.291,-0.24 -0.291,-0.408 0,-0.109 0.039,-0.199 0.116,-0.272 0.057,-0.055 0.127,-0.082 0.209,-0.082 0.093,0 0.172,0.041 0.235,0.124 0.048,0.063 0.108,0.18 0.179,0.35 0.108,0.267 0.203,0.454 0.28,0.563 0.155,0.216 0.367,0.322 0.639,0.322 0.285,0 0.518,-0.104 0.7,-0.315 0.167,-0.192 0.25,-0.424 0.25,-0.694 0,-0.493 -0.247,-0.836 -0.742,-1.03 l -0.184,0.444 c 0.116,0.058 0.203,0.109 0.26,0.152 0.143,0.108 0.216,0.255 0.216,0.441 0,0.164 -0.055,0.291 -0.165,0.382 -0.086,0.07 -0.184,0.104 -0.294,0.104 -0.121,0 -0.222,-0.044 -0.301,-0.131 -0.05,-0.056 -0.113,-0.172 -0.188,-0.348 -0.114,-0.271 -0.214,-0.468 -0.301,-0.59 -0.124,-0.174 -0.306,-0.26 -0.543,-0.26 -0.252,0 -0.455,0.092 -0.608,0.277 -0.139,0.169 -0.209,0.364 -0.209,0.583 0,0.356 0.176,0.626 0.526,0.809"
       style="fill:#000000;fill-opacity:1;fill-rule:nonzero;stroke:none"
       id="path6772"
       inkscape:connector-curvature="0" /><path
       d="m 60.36367,711.10881 2.843,0 c 0.363,0 0.63,-0.032 0.804,-0.097 0.303,-0.111 0.534,-0.311 0.694,-0.601 0.125,-0.226 0.188,-0.483 0.188,-0.769 0,-0.433 -0.13,-0.78 -0.386,-1.042 -0.242,-0.245 -0.559,-0.374 -0.951,-0.389 l 0,0.504 c 0.214,0.018 0.378,0.063 0.492,0.135 0.124,0.081 0.22,0.195 0.287,0.34 0.069,0.146 0.103,0.301 0.103,0.465 0,0.341 -0.119,0.593 -0.356,0.756 -0.18,0.129 -0.443,0.191 -0.789,0.191 l -0.424,0 c 0.322,-0.289 0.482,-0.636 0.482,-1.04 0,-0.412 -0.156,-0.757 -0.468,-1.035 -0.278,-0.246 -0.629,-0.368 -1.053,-0.368 -0.472,0 -0.853,0.149 -1.142,0.445 -0.261,0.268 -0.393,0.596 -0.393,0.982 0,0.41 0.161,0.749 0.482,1.016 l -0.413,0 0,0.507 z m 0.383,-1.464 c 0,-0.32 0.129,-0.575 0.389,-0.764 0.187,-0.136 0.415,-0.205 0.687,-0.205 0.326,0 0.583,0.09 0.769,0.268 0.206,0.192 0.308,0.423 0.308,0.694 0,0.312 -0.12,0.567 -0.359,0.764 -0.18,0.149 -0.417,0.225 -0.711,0.225 -0.362,0 -0.638,-0.106 -0.827,-0.32 -0.171,-0.192 -0.256,-0.412 -0.256,-0.662"
       style="fill:#000000;fill-opacity:1;fill-rule:nonzero;stroke:none"
       id="path6778"
       inkscape:connector-curvature="0" /><path
       d="m 60.36367,711.99351 0,0.507 0.314,0 c -0.116,0.097 -0.199,0.174 -0.247,0.233 -0.093,0.114 -0.14,0.26 -0.14,0.433 0,0.146 0.043,0.296 0.128,0.451 l 0.45,-0.239 c -0.068,-0.104 -0.101,-0.203 -0.101,-0.295 0,-0.133 0.044,-0.251 0.133,-0.358 0.081,-0.097 0.205,-0.162 0.368,-0.194 0.117,-0.021 0.275,-0.031 0.472,-0.031 l 1.531,0 0,-0.507 -2.908,0 z"
       style="fill:#000000;fill-opacity:1;fill-rule:nonzero;stroke:none"
       id="path6784"
       inkscape:connector-curvature="0" /><path
       d="m 60.36367,716.17661 0,0.506 2.908,0 0,-0.506 -0.403,0 c 0.326,-0.278 0.488,-0.617 0.488,-1.018 0,-0.439 -0.164,-0.797 -0.495,-1.072 -0.278,-0.233 -0.628,-0.35 -1.049,-0.35 -0.49,0 -0.876,0.156 -1.159,0.469 -0.239,0.265 -0.359,0.58 -0.359,0.943 0,0.407 0.161,0.75 0.482,1.028 l -0.413,0 z m 0.383,-0.951 c 0,-0.287 0.108,-0.526 0.324,-0.715 0.196,-0.171 0.438,-0.256 0.728,-0.256 0.349,0 0.626,0.101 0.834,0.307 0.182,0.182 0.274,0.401 0.274,0.66 0,0.316 -0.121,0.571 -0.363,0.763 -0.189,0.15 -0.431,0.226 -0.728,0.226 -0.348,0 -0.615,-0.103 -0.803,-0.309 -0.178,-0.194 -0.266,-0.419 -0.266,-0.676"
       style="fill:#000000;fill-opacity:1;fill-rule:nonzero;stroke:none"
       id="path6790"
       inkscape:connector-curvature="0" /><path
       d="m 58.16567,719.82391 0,0.506 5.106,0 0,-0.506 -0.403,0 c 0.326,-0.271 0.488,-0.611 0.488,-1.021 0,-0.435 -0.164,-0.791 -0.495,-1.069 -0.278,-0.233 -0.628,-0.35 -1.049,-0.35 -0.486,0 -0.87,0.157 -1.155,0.471 -0.239,0.264 -0.359,0.577 -0.359,0.937 0,0.408 0.161,0.751 0.481,1.032 l -2.614,0 z m 2.584,-0.951 c 0,-0.287 0.109,-0.526 0.324,-0.715 0.197,-0.171 0.438,-0.256 0.725,-0.256 0.349,0 0.627,0.101 0.838,0.307 0.179,0.182 0.27,0.402 0.27,0.664 0,0.316 -0.12,0.569 -0.359,0.759 -0.192,0.15 -0.435,0.226 -0.732,0.226 -0.346,0 -0.612,-0.103 -0.8,-0.309 -0.177,-0.192 -0.266,-0.417 -0.266,-0.676"
       style="fill:#000000;fill-opacity:1;fill-rule:nonzero;stroke:none"
       id="path6796"
       inkscape:connector-curvature="0" /><path
       d="m 58.63677,723.65121 5.393,0 0,0.673 0.473,0 0,-1.194 -6.337,0 0,1.194 0.471,0 0,-0.673 z"
       style="fill:#000000;fill-opacity:1;fill-rule:nonzero;stroke:none"
       id="path6802"
       inkscape:connector-curvature="0" /><path
       d="m 58.55887,725.88661 c 0,0.331 0.12,0.6 0.362,0.808 0.194,0.167 0.413,0.25 0.656,0.25 0.287,0 0.534,-0.109 0.739,-0.326 0.186,-0.199 0.28,-0.445 0.28,-0.739 0,-0.327 -0.12,-0.593 -0.363,-0.802 -0.194,-0.165 -0.418,-0.246 -0.673,-0.246 -0.273,0 -0.512,0.109 -0.718,0.325 -0.189,0.197 -0.283,0.44 -0.283,0.73 m 0.386,-0.003 c 0,-0.177 0.062,-0.326 0.184,-0.448 0.124,-0.126 0.27,-0.187 0.438,-0.187 0.176,0 0.327,0.061 0.451,0.187 0.123,0.122 0.185,0.272 0.185,0.451 0,0.175 -0.062,0.325 -0.185,0.448 -0.123,0.124 -0.27,0.187 -0.444,0.187 -0.177,0 -0.326,-0.063 -0.445,-0.187 -0.122,-0.128 -0.184,-0.278 -0.184,-0.451 m -0.431,2.491 0.151,0.278 4.696,-2.76 -0.158,-0.274 -4.689,2.756 z m 2.769,0.01 c 0,0.331 0.121,0.601 0.365,0.809 0.192,0.164 0.41,0.247 0.654,0.247 0.286,0 0.532,-0.108 0.735,-0.323 0.188,-0.2 0.283,-0.446 0.283,-0.74 0,-0.325 -0.121,-0.592 -0.363,-0.798 -0.193,-0.163 -0.416,-0.246 -0.67,-0.246 -0.273,0 -0.513,0.107 -0.72,0.323 -0.19,0.196 -0.284,0.439 -0.284,0.728 m 0.386,0 c 0,-0.175 0.062,-0.324 0.184,-0.447 0.124,-0.125 0.27,-0.187 0.438,-0.187 0.176,0 0.326,0.062 0.451,0.187 0.123,0.123 0.185,0.273 0.185,0.451 0,0.175 -0.062,0.324 -0.185,0.448 -0.123,0.124 -0.271,0.187 -0.444,0.187 -0.177,0 -0.326,-0.063 -0.445,-0.187 -0.122,-0.128 -0.184,-0.279 -0.184,-0.452"
       style="fill:#000000;fill-opacity:1;fill-rule:nonzero;stroke:none"
       id="path6808"
       inkscape:connector-curvature="0" /><path
       d="m 64.03027,730.62391 -5.393,0 0,-0.673 -0.472,0 0,1.194 6.338,0 0,-1.194 -0.473,0 0,0.673 z"
       style="fill:#000000;fill-opacity:1;fill-rule:nonzero;stroke:none"
       id="path6814"
       inkscape:connector-curvature="0" /><path
       d="m 165.18287,644.95661 c 0.283,0 0.545,-0.11 0.785,-0.328 0.229,-0.208 0.398,-0.48 0.507,-0.818 0.088,-0.277 0.132,-0.579 0.132,-0.905 0,-0.578 -0.132,-1.065 -0.396,-1.459 -0.125,-0.186 -0.284,-0.336 -0.477,-0.451 -0.18,-0.108 -0.365,-0.161 -0.557,-0.161 -0.285,0 -0.552,0.114 -0.8,0.342 -0.215,0.198 -0.377,0.46 -0.486,0.788 -0.096,0.286 -0.144,0.602 -0.144,0.95 0,0.379 0.066,0.728 0.197,1.048 0.129,0.321 0.312,0.571 0.551,0.75 0.214,0.163 0.444,0.244 0.688,0.244 m -0.009,-0.408 c -0.279,0 -0.508,-0.147 -0.685,-0.442 -0.203,-0.338 -0.305,-0.737 -0.305,-1.198 0,-0.465 0.096,-0.864 0.287,-1.196 0.18,-0.31 0.416,-0.465 0.709,-0.465 0.275,0 0.503,0.15 0.683,0.451 0.203,0.34 0.304,0.738 0.304,1.195 0,0.457 -0.092,0.848 -0.278,1.172 -0.185,0.322 -0.424,0.483 -0.715,0.483"
       style="fill:#000000;fill-opacity:1;fill-rule:nonzero;stroke:none"
       id="path6820"
       inkscape:connector-curvature="0" /><path
       d="m 167.47357,641.48481 0.389,-0.144 -0.6,-1.353 -0.287,0.114 0.498,1.383 z"
       style="fill:#000000;fill-opacity:1;fill-rule:nonzero;stroke:none"
       id="path6826"
       inkscape:connector-curvature="0" /><path
       d="m 170.76257,641.95991 0.493,0 0,-0.405 -0.493,0 0,-0.656 -0.445,0 0,0.656 -2.051,0 2.496,3.566 0,-3.161 z m -0.445,0 0,1.807 -1.269,-1.807 1.269,0 z"
       style="fill:#000000;fill-opacity:1;fill-rule:nonzero;stroke:none"
       id="path6832"
       inkscape:connector-curvature="0" /><path
       d="m 294.35377,644.46821 -0.662,0 0.234,0.416 0.876,0 0,-3.999 -0.448,0 0,3.583 z"
       style="fill:#000000;fill-opacity:1;fill-rule:nonzero;stroke:none"
       id="path6838"
       inkscape:connector-curvature="0" /><path
       d="m 296.76457,641.47121 0.389,-0.144 -0.6,-1.353 -0.287,0.114 0.498,1.383 z"
       style="fill:#000000;fill-opacity:1;fill-rule:nonzero;stroke:none"
       id="path6844"
       inkscape:connector-curvature="0" /><path
       d="m 299.15167,644.94301 c 0.283,0 0.545,-0.11 0.785,-0.328 0.229,-0.208 0.398,-0.48 0.507,-0.818 0.088,-0.277 0.132,-0.579 0.132,-0.905 0,-0.578 -0.132,-1.065 -0.396,-1.459 -0.125,-0.186 -0.284,-0.336 -0.477,-0.451 -0.18,-0.108 -0.365,-0.161 -0.557,-0.161 -0.285,0 -0.552,0.114 -0.8,0.342 -0.215,0.198 -0.377,0.46 -0.486,0.788 -0.096,0.286 -0.144,0.602 -0.144,0.95 0,0.379 0.066,0.728 0.197,1.048 0.129,0.321 0.312,0.571 0.551,0.75 0.214,0.163 0.444,0.244 0.688,0.244 m -0.009,-0.408 c -0.279,0 -0.508,-0.147 -0.685,-0.442 -0.203,-0.338 -0.305,-0.737 -0.305,-1.198 0,-0.465 0.096,-0.864 0.287,-1.196 0.18,-0.31 0.416,-0.465 0.709,-0.465 0.275,0 0.503,0.15 0.683,0.451 0.203,0.34 0.304,0.738 0.304,1.195 0,0.457 -0.092,0.848 -0.278,1.172 -0.185,0.322 -0.424,0.483 -0.715,0.483"
       style="fill:#000000;fill-opacity:1;fill-rule:nonzero;stroke:none"
       id="path6850"
       inkscape:connector-curvature="0" /><path
       d="m 252.65607,644.95661 c 0.283,0 0.545,-0.11 0.785,-0.328 0.229,-0.208 0.398,-0.48 0.507,-0.818 0.088,-0.277 0.132,-0.579 0.132,-0.905 0,-0.578 -0.132,-1.065 -0.396,-1.459 -0.125,-0.186 -0.284,-0.336 -0.477,-0.451 -0.18,-0.108 -0.365,-0.161 -0.557,-0.161 -0.285,0 -0.552,0.114 -0.8,0.342 -0.215,0.198 -0.377,0.46 -0.486,0.788 -0.096,0.286 -0.144,0.602 -0.144,0.95 0,0.379 0.066,0.728 0.197,1.048 0.129,0.321 0.312,0.571 0.551,0.75 0.214,0.163 0.444,0.244 0.688,0.244 m -0.009,-0.408 c -0.279,0 -0.508,-0.147 -0.685,-0.442 -0.203,-0.338 -0.305,-0.737 -0.305,-1.198 0,-0.465 0.096,-0.864 0.287,-1.196 0.18,-0.31 0.416,-0.465 0.709,-0.465 0.275,0 0.503,0.15 0.683,0.451 0.203,0.34 0.304,0.738 0.304,1.195 0,0.457 -0.092,0.848 -0.278,1.172 -0.185,0.322 -0.424,0.483 -0.715,0.483"
       style="fill:#000000;fill-opacity:1;fill-rule:nonzero;stroke:none"
       id="path6856"
       inkscape:connector-curvature="0" /><path
       d="m 254.94677,641.48481 0.389,-0.144 -0.6,-1.353 -0.287,0.114 0.498,1.383 z"
       style="fill:#000000;fill-opacity:1;fill-rule:nonzero;stroke:none"
       id="path6862"
       inkscape:connector-curvature="0" /><path
       d="m 256.73257,642.97891 c -0.117,0.07 -0.212,0.153 -0.284,0.249 -0.138,0.186 -0.208,0.396 -0.208,0.63 0,0.314 0.114,0.581 0.34,0.8 0.205,0.199 0.466,0.299 0.782,0.299 0.348,0 0.629,-0.121 0.844,-0.364 0.184,-0.207 0.275,-0.451 0.275,-0.732 0,-0.233 -0.075,-0.445 -0.225,-0.639 -0.08,-0.101 -0.172,-0.182 -0.276,-0.243 0.125,-0.06 0.231,-0.14 0.317,-0.237 0.176,-0.203 0.264,-0.446 0.264,-0.727 0,-0.363 -0.129,-0.658 -0.387,-0.885 -0.223,-0.197 -0.494,-0.295 -0.815,-0.295 -0.234,0 -0.451,0.056 -0.65,0.169 -0.201,0.114 -0.353,0.272 -0.454,0.475 -0.078,0.156 -0.117,0.33 -0.117,0.522 0,0.449 0.198,0.775 0.594,0.978 m 0.627,1.57 c -0.193,0 -0.356,-0.067 -0.489,-0.202 -0.137,-0.138 -0.205,-0.3 -0.205,-0.483 0,-0.197 0.068,-0.364 0.205,-0.501 0.133,-0.137 0.296,-0.205 0.489,-0.205 0.194,0 0.358,0.068 0.493,0.205 0.134,0.135 0.202,0.299 0.202,0.492 0,0.195 -0.068,0.359 -0.202,0.492 -0.139,0.135 -0.303,0.202 -0.493,0.202 m -0.011,-1.772 c -0.213,0 -0.395,-0.074 -0.545,-0.223 -0.151,-0.15 -0.226,-0.327 -0.226,-0.53 0,-0.217 0.075,-0.4 0.226,-0.551 0.15,-0.15 0.333,-0.225 0.548,-0.225 0.212,0 0.394,0.075 0.545,0.225 0.15,0.149 0.225,0.328 0.225,0.539 0,0.215 -0.075,0.395 -0.225,0.539 -0.155,0.151 -0.337,0.226 -0.548,0.226"
       style="fill:#000000;fill-opacity:1;fill-rule:nonzero;stroke:none"
       id="path6868"
       inkscape:connector-curvature="0" /><path
       d="m 121.64157,644.95661 c 0.283,0 0.545,-0.11 0.785,-0.328 0.229,-0.208 0.398,-0.48 0.507,-0.818 0.088,-0.277 0.132,-0.579 0.132,-0.905 0,-0.578 -0.132,-1.065 -0.396,-1.459 -0.125,-0.186 -0.284,-0.336 -0.477,-0.451 -0.18,-0.108 -0.365,-0.161 -0.557,-0.161 -0.285,0 -0.552,0.114 -0.8,0.342 -0.215,0.198 -0.377,0.46 -0.486,0.788 -0.096,0.286 -0.144,0.602 -0.144,0.95 0,0.379 0.066,0.728 0.197,1.048 0.129,0.321 0.312,0.571 0.551,0.75 0.214,0.163 0.444,0.244 0.688,0.244 m -0.009,-0.408 c -0.279,0 -0.508,-0.147 -0.685,-0.442 -0.203,-0.338 -0.305,-0.737 -0.305,-1.198 0,-0.465 0.096,-0.864 0.287,-1.196 0.18,-0.31 0.416,-0.465 0.709,-0.465 0.275,0 0.503,0.15 0.683,0.451 0.203,0.34 0.304,0.738 0.304,1.195 0,0.457 -0.092,0.848 -0.278,1.172 -0.185,0.322 -0.424,0.483 -0.715,0.483"
       style="fill:#000000;fill-opacity:1;fill-rule:nonzero;stroke:none"
       id="path6874"
       inkscape:connector-curvature="0" /><path
       d="m 123.93227,641.48481 0.389,-0.144 -0.6,-1.353 -0.287,0.114 0.498,1.383 z"
       style="fill:#000000;fill-opacity:1;fill-rule:nonzero;stroke:none"
       id="path6880"
       inkscape:connector-curvature="0" /><path
       d="m 125.82127,641.31501 1.679,0 0,-0.416 -2.584,0 1.453,1.685 c 0.185,0.214 0.34,0.409 0.463,0.583 0.154,0.222 0.231,0.427 0.231,0.615 0,0.236 -0.091,0.429 -0.272,0.577 -0.153,0.127 -0.329,0.19 -0.531,0.19 -0.187,0 -0.353,-0.055 -0.498,-0.167 -0.14,-0.105 -0.23,-0.25 -0.269,-0.433 -0.012,-0.049 -0.022,-0.121 -0.029,-0.217 l -0.449,0 c 0.028,0.295 0.095,0.523 0.202,0.686 0.106,0.162 0.246,0.291 0.419,0.386 0.19,0.102 0.397,0.153 0.621,0.153 0.358,0 0.659,-0.12 0.903,-0.361 0.228,-0.224 0.343,-0.498 0.343,-0.82 0,-0.283 -0.107,-0.57 -0.32,-0.861 -0.123,-0.17 -0.303,-0.392 -0.542,-0.665 l -0.82,-0.935 z"
       style="fill:#000000;fill-opacity:1;fill-rule:nonzero;stroke:none"
       id="path6886"
       inkscape:connector-curvature="0" /><path
       d="m 208.90167,644.95661 c 0.283,0 0.545,-0.11 0.785,-0.328 0.229,-0.208 0.398,-0.48 0.507,-0.818 0.088,-0.277 0.132,-0.579 0.132,-0.905 0,-0.578 -0.132,-1.065 -0.396,-1.459 -0.125,-0.186 -0.284,-0.336 -0.477,-0.451 -0.18,-0.108 -0.365,-0.161 -0.557,-0.161 -0.285,0 -0.552,0.114 -0.8,0.342 -0.215,0.198 -0.377,0.46 -0.486,0.788 -0.096,0.286 -0.144,0.602 -0.144,0.95 0,0.379 0.066,0.728 0.197,1.048 0.129,0.321 0.312,0.571 0.551,0.75 0.214,0.163 0.444,0.244 0.688,0.244 m -0.009,-0.408 c -0.279,0 -0.508,-0.147 -0.685,-0.442 -0.203,-0.338 -0.305,-0.737 -0.305,-1.198 0,-0.465 0.096,-0.864 0.287,-1.196 0.18,-0.31 0.416,-0.465 0.709,-0.465 0.275,0 0.503,0.15 0.683,0.451 0.203,0.34 0.304,0.738 0.304,1.195 0,0.457 -0.092,0.848 -0.278,1.172 -0.185,0.322 -0.424,0.483 -0.715,0.483"
       style="fill:#000000;fill-opacity:1;fill-rule:nonzero;stroke:none"
       id="path6892"
       inkscape:connector-curvature="0" /><path
       d="m 211.19227,641.48481 0.389,-0.144 -0.6,-1.353 -0.287,0.114 0.498,1.383 z"
       style="fill:#000000;fill-opacity:1;fill-rule:nonzero;stroke:none"
       id="path6898"
       inkscape:connector-curvature="0" /><path
       d="m 213.88717,644.99771 0.334,-0.252 -0.923,-1.281 c 0.131,0.038 0.255,0.056 0.372,0.056 0.34,0 0.628,-0.115 0.864,-0.346 0.277,-0.271 0.416,-0.595 0.416,-0.972 0,-0.231 -0.058,-0.45 -0.173,-0.659 -0.127,-0.229 -0.3,-0.406 -0.518,-0.531 -0.207,-0.119 -0.435,-0.178 -0.683,-0.178 -0.402,0 -0.74,0.145 -1.014,0.436 -0.246,0.262 -0.369,0.566 -0.369,0.914 0,0.311 0.11,0.618 0.328,0.923 l 1.366,1.89 z m -0.317,-1.872 c -0.258,0 -0.478,-0.092 -0.662,-0.276 -0.183,-0.183 -0.275,-0.404 -0.275,-0.662 0,-0.26 0.092,-0.481 0.275,-0.665 0.182,-0.184 0.403,-0.275 0.665,-0.275 0.262,0 0.483,0.091 0.662,0.275 0.184,0.186 0.276,0.403 0.276,0.653 0,0.27 -0.092,0.494 -0.276,0.674 -0.185,0.184 -0.407,0.276 -0.665,0.276"
       style="fill:#000000;fill-opacity:1;fill-rule:nonzero;stroke:none"
       id="path6904"
       inkscape:connector-curvature="0" /><path
       d="m 79.54707,644.95661 c 0.283,0 0.545,-0.11 0.785,-0.328 0.229,-0.208 0.398,-0.48 0.507,-0.818 0.088,-0.277 0.132,-0.579 0.132,-0.905 0,-0.578 -0.132,-1.065 -0.396,-1.459 -0.125,-0.186 -0.284,-0.336 -0.477,-0.451 -0.18,-0.108 -0.365,-0.161 -0.557,-0.161 -0.285,0 -0.552,0.114 -0.8,0.342 -0.215,0.198 -0.377,0.46 -0.486,0.788 -0.096,0.286 -0.144,0.602 -0.144,0.95 0,0.379 0.066,0.728 0.197,1.048 0.129,0.321 0.312,0.571 0.551,0.75 0.214,0.163 0.444,0.244 0.688,0.244 m -0.009,-0.408 c -0.279,0 -0.508,-0.147 -0.685,-0.442 -0.203,-0.338 -0.305,-0.737 -0.305,-1.198 0,-0.465 0.096,-0.864 0.287,-1.196 0.18,-0.31 0.416,-0.465 0.709,-0.465 0.275,0 0.503,0.15 0.683,0.451 0.203,0.34 0.304,0.738 0.304,1.195 0,0.457 -0.092,0.848 -0.278,1.172 -0.185,0.322 -0.424,0.483 -0.715,0.483"
       style="fill:#000000;fill-opacity:1;fill-rule:nonzero;stroke:none"
       id="path6910"
       inkscape:connector-curvature="0" /><path
       d="m 81.83777,641.48481 0.389,-0.144 -0.6,-1.353 -0.287,0.114 0.498,1.383 z"
       style="fill:#000000;fill-opacity:1;fill-rule:nonzero;stroke:none"
       id="path6916"
       inkscape:connector-curvature="0" /><path
       d="m 84.22487,644.95661 c 0.283,0 0.545,-0.11 0.785,-0.328 0.229,-0.208 0.398,-0.48 0.507,-0.818 0.088,-0.277 0.132,-0.579 0.132,-0.905 0,-0.578 -0.132,-1.065 -0.396,-1.459 -0.125,-0.186 -0.284,-0.336 -0.477,-0.451 -0.18,-0.108 -0.365,-0.161 -0.557,-0.161 -0.285,0 -0.552,0.114 -0.8,0.342 -0.215,0.198 -0.377,0.46 -0.486,0.788 -0.096,0.286 -0.144,0.602 -0.144,0.95 0,0.379 0.066,0.728 0.197,1.048 0.129,0.321 0.312,0.571 0.551,0.75 0.214,0.163 0.444,0.244 0.688,0.244 m -0.009,-0.408 c -0.279,0 -0.508,-0.147 -0.685,-0.442 -0.203,-0.338 -0.305,-0.737 -0.305,-1.198 0,-0.465 0.096,-0.864 0.287,-1.196 0.18,-0.31 0.416,-0.465 0.709,-0.465 0.275,0 0.503,0.15 0.683,0.451 0.203,0.34 0.304,0.738 0.304,1.195 0,0.457 -0.092,0.848 -0.278,1.172 -0.185,0.322 -0.424,0.483 -0.715,0.483"
       style="fill:#000000;fill-opacity:1;fill-rule:nonzero;stroke:none"
       id="path6922"
       inkscape:connector-curvature="0" /><path
       d="m 139.16227,628.99651 -2.024,0 -0.573,-1.32 -0.576,0 2.184,4.888 2.127,-4.888 -0.58,0 -0.558,1.32 z m -0.209,0.485 -0.791,1.869 -0.809,-1.869 1.6,0 z"
       style="fill:#000000;fill-opacity:1;fill-rule:nonzero;stroke:none"
       id="path6928"
       inkscape:connector-curvature="0" /><path
       d="m 141.24117,630.58531 0,-1.699 c 0,-0.25 0.03,-0.431 0.09,-0.543 0.053,-0.098 0.134,-0.173 0.243,-0.225 0.102,-0.05 0.211,-0.076 0.329,-0.076 0.177,0 0.325,0.049 0.445,0.147 0.106,0.087 0.173,0.21 0.197,0.369 0.015,0.082 0.022,0.192 0.022,0.328 l 0,1.699 0.505,0 0,-1.753 c 0,-0.276 -0.034,-0.487 -0.102,-0.633 -0.099,-0.209 -0.256,-0.368 -0.477,-0.478 -0.175,-0.086 -0.372,-0.129 -0.59,-0.129 -0.379,0 -0.68,0.121 -0.902,0.365 -0.118,0.13 -0.195,0.274 -0.229,0.43 -0.025,0.124 -0.038,0.272 -0.038,0.445 l 0,1.753 0.507,0 z"
       style="fill:#000000;fill-opacity:1;fill-rule:nonzero;stroke:none"
       id="path6934"
       inkscape:connector-curvature="0" /><path
       d="m 145.60657,630.12471 -0.421,-0.216 c -0.103,0.194 -0.24,0.291 -0.408,0.291 -0.109,0 -0.199,-0.039 -0.272,-0.116 -0.055,-0.057 -0.082,-0.127 -0.082,-0.209 0,-0.093 0.041,-0.172 0.124,-0.235 0.063,-0.048 0.18,-0.108 0.35,-0.179 0.267,-0.108 0.454,-0.203 0.563,-0.28 0.216,-0.155 0.322,-0.367 0.322,-0.639 0,-0.285 -0.104,-0.518 -0.315,-0.7 -0.192,-0.167 -0.424,-0.25 -0.694,-0.25 -0.493,0 -0.836,0.247 -1.031,0.742 l 0.445,0.184 c 0.058,-0.116 0.109,-0.203 0.152,-0.26 0.108,-0.143 0.255,-0.216 0.441,-0.216 0.164,0 0.291,0.055 0.382,0.165 0.07,0.086 0.104,0.184 0.104,0.294 0,0.121 -0.044,0.222 -0.131,0.301 -0.056,0.05 -0.172,0.113 -0.348,0.188 -0.271,0.114 -0.468,0.214 -0.59,0.301 -0.174,0.124 -0.26,0.306 -0.26,0.543 0,0.252 0.092,0.455 0.277,0.608 0.169,0.139 0.364,0.209 0.583,0.209 0.356,0 0.626,-0.176 0.809,-0.526"
       style="fill:#000000;fill-opacity:1;fill-rule:nonzero;stroke:none"
       id="path6940"
       inkscape:connector-curvature="0" /><path
       d="m 149.22557,630.58531 0,-2.843 c 0,-0.363 -0.032,-0.63 -0.097,-0.804 -0.111,-0.303 -0.311,-0.534 -0.601,-0.694 -0.226,-0.125 -0.483,-0.188 -0.769,-0.188 -0.433,0 -0.78,0.13 -1.042,0.386 -0.245,0.242 -0.374,0.559 -0.389,0.951 l 0.504,0 c 0.018,-0.214 0.063,-0.378 0.135,-0.492 0.081,-0.124 0.195,-0.22 0.34,-0.287 0.146,-0.069 0.301,-0.103 0.465,-0.103 0.341,0 0.593,0.119 0.756,0.356 0.128,0.18 0.191,0.443 0.191,0.789 l 0,0.424 c -0.289,-0.322 -0.636,-0.482 -1.04,-0.482 -0.412,0 -0.757,0.156 -1.035,0.468 -0.246,0.278 -0.368,0.629 -0.368,1.053 0,0.472 0.149,0.853 0.445,1.142 0.268,0.261 0.596,0.393 0.982,0.393 0.41,0 0.749,-0.161 1.016,-0.482 l 0,0.413 0.507,0 z m -1.464,-0.383 c -0.32,0 -0.575,-0.129 -0.764,-0.389 -0.136,-0.187 -0.205,-0.415 -0.205,-0.687 0,-0.326 0.09,-0.583 0.268,-0.769 0.192,-0.206 0.423,-0.308 0.694,-0.308 0.312,0 0.567,0.12 0.764,0.359 0.149,0.18 0.225,0.417 0.225,0.711 0,0.362 -0.107,0.638 -0.32,0.827 -0.192,0.171 -0.412,0.256 -0.662,0.256"
       style="fill:#000000;fill-opacity:1;fill-rule:nonzero;stroke:none"
       id="path6946"
       inkscape:connector-curvature="0" /><path
       d="m 152.36687,630.58531 0.506,0 0,-2.908 -0.506,0 0,0.403 c -0.278,-0.326 -0.617,-0.488 -1.018,-0.488 -0.439,0 -0.797,0.164 -1.072,0.495 -0.233,0.278 -0.35,0.628 -0.35,1.049 0,0.49 0.156,0.876 0.469,1.159 0.265,0.239 0.58,0.359 0.943,0.359 0.407,0 0.75,-0.161 1.028,-0.482 l 0,0.413 z m -0.951,-0.383 c -0.287,0 -0.526,-0.108 -0.716,-0.324 -0.17,-0.196 -0.255,-0.438 -0.255,-0.728 0,-0.349 0.101,-0.626 0.307,-0.834 0.181,-0.182 0.401,-0.274 0.66,-0.274 0.316,0 0.571,0.121 0.763,0.363 0.15,0.189 0.226,0.431 0.226,0.728 0,0.348 -0.103,0.615 -0.309,0.803 -0.194,0.178 -0.419,0.266 -0.676,0.266"
       style="fill:#000000;fill-opacity:1;fill-rule:nonzero;stroke:none"
       id="path6952"
       inkscape:connector-curvature="0" /><path
       d="m 153.78227,630.58531 0.507,0 0,-0.352 c 0.093,0.112 0.176,0.194 0.249,0.246 0.164,0.116 0.364,0.175 0.597,0.175 0.243,0 0.455,-0.064 0.636,-0.191 0.178,-0.124 0.291,-0.305 0.34,-0.544 0.023,-0.112 0.035,-0.258 0.035,-0.438 l 0,-1.804 -0.507,0 0,1.719 c 0,0.271 -0.032,0.459 -0.098,0.564 -0.099,0.162 -0.272,0.242 -0.52,0.242 -0.296,0 -0.499,-0.115 -0.611,-0.345 -0.08,-0.163 -0.121,-0.406 -0.121,-0.728 l 0,-1.452 -0.507,0 0,2.908 z"
       style="fill:#000000;fill-opacity:1;fill-rule:nonzero;stroke:none"
       id="path6958"
       inkscape:connector-curvature="0" /><path
       d="m 159.80017,630.58531 0,-2.843 c 0,-0.363 -0.032,-0.63 -0.097,-0.804 -0.111,-0.303 -0.311,-0.534 -0.601,-0.694 -0.226,-0.125 -0.483,-0.188 -0.769,-0.188 -0.433,0 -0.78,0.13 -1.042,0.386 -0.245,0.242 -0.374,0.559 -0.389,0.951 l 0.504,0 c 0.018,-0.214 0.063,-0.378 0.135,-0.492 0.081,-0.124 0.195,-0.22 0.34,-0.287 0.146,-0.069 0.301,-0.103 0.465,-0.103 0.341,0 0.593,0.119 0.756,0.356 0.129,0.18 0.191,0.443 0.191,0.789 l 0,0.424 c -0.289,-0.322 -0.636,-0.482 -1.04,-0.482 -0.412,0 -0.757,0.156 -1.035,0.468 -0.246,0.278 -0.368,0.629 -0.368,1.053 0,0.472 0.149,0.853 0.445,1.142 0.268,0.261 0.596,0.393 0.982,0.393 0.41,0 0.749,-0.161 1.016,-0.482 l 0,0.413 0.507,0 z m -1.464,-0.383 c -0.32,0 -0.575,-0.129 -0.764,-0.389 -0.136,-0.187 -0.205,-0.415 -0.205,-0.687 0,-0.326 0.09,-0.583 0.268,-0.769 0.192,-0.206 0.423,-0.308 0.694,-0.308 0.312,0 0.567,0.12 0.764,0.359 0.149,0.18 0.225,0.417 0.225,0.711 0,0.362 -0.107,0.638 -0.32,0.827 -0.192,0.171 -0.412,0.256 -0.662,0.256"
       style="fill:#000000;fill-opacity:1;fill-rule:nonzero;stroke:none"
       id="path6964"
       inkscape:connector-curvature="0" /><path
       d="m 162.32697,630.12471 -0.421,-0.216 c -0.103,0.194 -0.24,0.291 -0.408,0.291 -0.109,0 -0.199,-0.039 -0.272,-0.116 -0.055,-0.057 -0.082,-0.127 -0.082,-0.209 0,-0.093 0.041,-0.172 0.124,-0.235 0.063,-0.048 0.18,-0.108 0.35,-0.179 0.267,-0.108 0.454,-0.203 0.563,-0.28 0.216,-0.155 0.322,-0.367 0.322,-0.639 0,-0.285 -0.104,-0.518 -0.315,-0.7 -0.192,-0.167 -0.424,-0.25 -0.694,-0.25 -0.493,0 -0.836,0.247 -1.03,0.742 l 0.444,0.184 c 0.058,-0.116 0.109,-0.203 0.152,-0.26 0.109,-0.143 0.255,-0.216 0.441,-0.216 0.164,0 0.291,0.055 0.382,0.165 0.07,0.086 0.104,0.184 0.104,0.294 0,0.121 -0.044,0.222 -0.131,0.301 -0.056,0.05 -0.172,0.113 -0.348,0.188 -0.271,0.114 -0.468,0.214 -0.59,0.301 -0.174,0.124 -0.26,0.306 -0.26,0.543 0,0.252 0.092,0.455 0.277,0.608 0.169,0.139 0.364,0.209 0.583,0.209 0.356,0 0.626,-0.176 0.809,-0.526"
       style="fill:#000000;fill-opacity:1;fill-rule:nonzero;stroke:none"
       id="path6970"
       inkscape:connector-curvature="0" /><path
       inkscape:connector-curvature="0"
       id="path6974"
       style="fill:#000000;fill-opacity:1;fill-rule:nonzero;stroke:none"
       d="m 163.70837,627.67711 -0.507,0 0,5.106 0.507,0 0,-5.106 z" /><path
       d="m 167.24417,629.02681 -2.302,0 c 0.01,-0.198 0.051,-0.365 0.126,-0.502 0.083,-0.152 0.197,-0.272 0.34,-0.355 0.143,-0.085 0.301,-0.128 0.471,-0.128 0.25,0 0.46,0.082 0.628,0.243 0.082,0.076 0.176,0.198 0.282,0.37 l 0.426,-0.236 c -0.117,-0.203 -0.239,-0.359 -0.363,-0.469 -0.274,-0.239 -0.603,-0.358 -0.989,-0.358 -0.473,0 -0.847,0.168 -1.126,0.505 -0.219,0.27 -0.329,0.608 -0.329,1.015 0,0.473 0.14,0.851 0.421,1.135 0.263,0.27 0.599,0.404 1.009,0.404 0.371,0 0.683,-0.115 0.941,-0.342 0.31,-0.274 0.465,-0.671 0.465,-1.193 l 0,-0.089 z m -0.535,0.421 c -0.032,0.161 -0.089,0.296 -0.17,0.406 -0.174,0.23 -0.405,0.345 -0.694,0.345 -0.303,0 -0.545,-0.128 -0.725,-0.386 -0.072,-0.105 -0.121,-0.226 -0.146,-0.365 l 1.735,0 z"
       style="fill:#000000;fill-opacity:1;fill-rule:nonzero;stroke:none"
       id="path6980"
       inkscape:connector-curvature="0" /><path
       inkscape:connector-curvature="0"
       id="path6984"
       style="fill:#000000;fill-opacity:1;fill-rule:nonzero;stroke:none"
       d="m 168.45237,627.67711 -0.507,0 0,2.908 0.507,0 0,-2.908 z m -0.25,4.357 c 0.099,0 0.184,-0.033 0.253,-0.102 0.072,-0.07 0.107,-0.154 0.107,-0.252 0,-0.101 -0.035,-0.186 -0.107,-0.254 -0.069,-0.071 -0.155,-0.106 -0.256,-0.106 -0.1,0 -0.185,0.035 -0.254,0.106 -0.072,0.071 -0.108,0.157 -0.108,0.257 0,0.096 0.036,0.179 0.108,0.249 0.071,0.069 0.158,0.102 0.257,0.102" /><path
       d="m 170.98547,630.12471 -0.421,-0.216 c -0.103,0.194 -0.24,0.291 -0.408,0.291 -0.109,0 -0.199,-0.039 -0.272,-0.116 -0.055,-0.057 -0.083,-0.127 -0.083,-0.209 0,-0.093 0.042,-0.172 0.125,-0.235 0.063,-0.048 0.18,-0.108 0.35,-0.179 0.267,-0.108 0.454,-0.203 0.563,-0.28 0.216,-0.155 0.322,-0.367 0.322,-0.639 0,-0.285 -0.104,-0.518 -0.315,-0.7 -0.192,-0.167 -0.424,-0.25 -0.694,-0.25 -0.493,0 -0.836,0.247 -1.03,0.742 l 0.444,0.184 c 0.058,-0.116 0.109,-0.203 0.152,-0.26 0.108,-0.143 0.255,-0.216 0.441,-0.216 0.164,0 0.291,0.055 0.381,0.165 0.071,0.086 0.105,0.184 0.105,0.294 0,0.121 -0.044,0.222 -0.131,0.301 -0.056,0.05 -0.172,0.113 -0.348,0.188 -0.271,0.114 -0.468,0.214 -0.59,0.301 -0.174,0.124 -0.26,0.306 -0.26,0.543 0,0.252 0.092,0.455 0.277,0.608 0.169,0.139 0.364,0.209 0.583,0.209 0.356,0 0.626,-0.176 0.809,-0.526"
       style="fill:#000000;fill-opacity:1;fill-rule:nonzero;stroke:none"
       id="path6990"
       inkscape:connector-curvature="0" /><path
       d="m 172.37017,630.12471 0,-2.448 -0.507,0 0,2.448 -0.309,0 0,0.461 0.309,0 0,1.043 0.507,0 0,-1.043 0.52,0 0,-0.461 -0.52,0 z"
       style="fill:#000000;fill-opacity:1;fill-rule:nonzero;stroke:none"
       id="path6996"
       inkscape:connector-curvature="0" /><path
       d="m 173.87707,630.58531 0,-1.699 c 0,-0.25 0.03,-0.431 0.09,-0.543 0.053,-0.098 0.134,-0.173 0.243,-0.225 0.102,-0.05 0.211,-0.076 0.329,-0.076 0.177,0 0.325,0.049 0.445,0.147 0.106,0.087 0.173,0.21 0.197,0.369 0.015,0.082 0.022,0.192 0.022,0.328 l 0,1.699 0.505,0 0,-1.753 c 0,-0.276 -0.034,-0.487 -0.102,-0.633 -0.099,-0.209 -0.256,-0.368 -0.477,-0.478 -0.175,-0.086 -0.372,-0.129 -0.59,-0.129 -0.379,0 -0.68,0.121 -0.902,0.365 -0.118,0.13 -0.195,0.274 -0.229,0.43 -0.025,0.124 -0.038,0.272 -0.038,0.445 l 0,1.753 0.507,0 z"
       style="fill:#000000;fill-opacity:1;fill-rule:nonzero;stroke:none"
       id="path7002"
       inkscape:connector-curvature="0" /><path
       d="m 176.62147,630.58531 0.507,0 0,-0.352 c 0.093,0.112 0.176,0.194 0.249,0.246 0.164,0.116 0.364,0.175 0.597,0.175 0.243,0 0.455,-0.064 0.636,-0.191 0.178,-0.124 0.292,-0.305 0.34,-0.544 0.023,-0.112 0.035,-0.258 0.035,-0.438 l 0,-1.804 -0.507,0 0,1.719 c 0,0.271 -0.032,0.459 -0.098,0.564 -0.099,0.162 -0.272,0.242 -0.52,0.242 -0.296,0 -0.499,-0.115 -0.611,-0.345 -0.08,-0.163 -0.121,-0.406 -0.121,-0.728 l 0,-1.452 -0.507,0 0,2.908 z"
       style="fill:#000000;fill-opacity:1;fill-rule:nonzero;stroke:none"
       id="path7008"
       inkscape:connector-curvature="0" /><path
       d="m 182.63947,630.58531 0,-2.843 c 0,-0.363 -0.032,-0.63 -0.097,-0.804 -0.111,-0.303 -0.311,-0.534 -0.601,-0.694 -0.226,-0.125 -0.483,-0.188 -0.77,-0.188 -0.432,0 -0.779,0.13 -1.041,0.386 -0.245,0.242 -0.374,0.559 -0.389,0.951 l 0.504,0 c 0.018,-0.214 0.063,-0.378 0.135,-0.492 0.081,-0.124 0.195,-0.22 0.34,-0.287 0.146,-0.069 0.301,-0.103 0.465,-0.103 0.341,0 0.593,0.119 0.756,0.356 0.128,0.18 0.191,0.443 0.191,0.789 l 0,0.424 c -0.289,-0.322 -0.636,-0.482 -1.04,-0.482 -0.412,0 -0.757,0.156 -1.035,0.468 -0.246,0.278 -0.368,0.629 -0.368,1.053 0,0.472 0.149,0.853 0.445,1.142 0.268,0.261 0.596,0.393 0.982,0.393 0.41,0 0.749,-0.161 1.016,-0.482 l 0,0.413 0.507,0 z m -1.464,-0.383 c -0.32,0 -0.575,-0.129 -0.764,-0.389 -0.136,-0.187 -0.205,-0.415 -0.205,-0.687 0,-0.326 0.09,-0.583 0.268,-0.769 0.192,-0.206 0.423,-0.308 0.694,-0.308 0.312,0 0.567,0.12 0.764,0.359 0.149,0.18 0.225,0.417 0.225,0.711 0,0.362 -0.107,0.638 -0.32,0.827 -0.192,0.171 -0.412,0.256 -0.662,0.256"
       style="fill:#000000;fill-opacity:1;fill-rule:nonzero;stroke:none"
       id="path7014"
       inkscape:connector-curvature="0" /><path
       d="m 187.86597,632.81021 0.41,-0.188 -3.099,-6.206 -0.41,0.188 3.099,6.206 z"
       style="fill:#000000;fill-opacity:1;fill-rule:nonzero;stroke:none"
       id="path7020"
       inkscape:connector-curvature="0" /><path
       d="m 190.66327,627.67691 0,4.666 0.857,0 c 0.334,0 0.593,-0.039 0.778,-0.117 0.252,-0.102 0.445,-0.276 0.58,-0.519 0.105,-0.194 0.159,-0.402 0.159,-0.622 0,-0.278 -0.074,-0.509 -0.222,-0.691 -0.048,-0.06 -0.13,-0.134 -0.246,-0.225 0.201,-0.06 0.364,-0.142 0.486,-0.25 0.123,-0.107 0.221,-0.245 0.295,-0.414 0.074,-0.168 0.111,-0.344 0.111,-0.526 0,-0.399 -0.16,-0.726 -0.479,-0.981 -0.162,-0.127 -0.327,-0.211 -0.494,-0.252 -0.178,-0.046 -0.392,-0.069 -0.64,-0.069 l -1.185,0 z m 0.532,2.608 0.399,0 c 0.226,0 0.391,0.022 0.493,0.065 0.156,0.069 0.273,0.181 0.35,0.338 0.055,0.112 0.084,0.238 0.084,0.379 0,0.268 -0.085,0.472 -0.254,0.613 -0.138,0.118 -0.359,0.177 -0.66,0.177 l -0.412,0 0,-1.572 z m 0,-2.123 0.603,0 c 0.269,0 0.468,0.026 0.597,0.075 0.188,0.076 0.33,0.194 0.427,0.356 0.072,0.123 0.108,0.259 0.108,0.407 0,0.196 -0.061,0.369 -0.184,0.519 -0.125,0.153 -0.306,0.25 -0.542,0.29 -0.112,0.022 -0.271,0.032 -0.475,0.032 l -0.534,0 0,-1.679 z"
       style="fill:#000000;fill-opacity:1;fill-rule:nonzero;stroke:none"
       id="path7026"
       inkscape:connector-curvature="0" /><path
       d="m 196.84217,629.02681 -2.302,0 c 0.01,-0.198 0.051,-0.365 0.126,-0.502 0.083,-0.152 0.197,-0.272 0.34,-0.355 0.143,-0.085 0.301,-0.128 0.471,-0.128 0.25,0 0.46,0.082 0.628,0.243 0.082,0.076 0.175,0.198 0.282,0.37 l 0.426,-0.236 c -0.117,-0.203 -0.239,-0.359 -0.363,-0.469 -0.274,-0.239 -0.603,-0.358 -0.989,-0.358 -0.473,0 -0.847,0.168 -1.126,0.505 -0.219,0.27 -0.329,0.608 -0.329,1.015 0,0.473 0.14,0.851 0.421,1.135 0.263,0.27 0.599,0.404 1.009,0.404 0.371,0 0.683,-0.115 0.941,-0.342 0.31,-0.274 0.465,-0.671 0.465,-1.193 l 0,-0.089 z m -0.535,0.421 c -0.033,0.161 -0.089,0.296 -0.17,0.406 -0.174,0.23 -0.405,0.345 -0.694,0.345 -0.303,0 -0.545,-0.128 -0.725,-0.386 -0.072,-0.105 -0.121,-0.226 -0.146,-0.365 l 1.735,0 z"
       style="fill:#000000;fill-opacity:1;fill-rule:nonzero;stroke:none"
       id="path7032"
       inkscape:connector-curvature="0" /><path
       d="m 197.54317,630.58531 0.507,0 0,-0.31 c 0.079,0.104 0.151,0.179 0.218,0.225 0.146,0.105 0.316,0.158 0.511,0.158 0.365,0 0.635,-0.159 0.808,-0.477 0.188,0.318 0.476,0.477 0.864,0.477 0.227,0 0.426,-0.063 0.598,-0.186 0.17,-0.125 0.28,-0.305 0.329,-0.539 0.021,-0.107 0.031,-0.244 0.031,-0.411 l 0,-1.845 -0.506,0 0,1.764 c 0,0.243 -0.033,0.422 -0.097,0.536 -0.087,0.151 -0.23,0.225 -0.431,0.225 -0.423,0 -0.635,-0.304 -0.635,-0.912 l 0,-1.613 -0.506,0 0,1.726 c 0,0.533 -0.183,0.799 -0.545,0.799 -0.148,0 -0.282,-0.05 -0.4,-0.15 -0.159,-0.139 -0.239,-0.404 -0.239,-0.793 l 0,-1.582 -0.507,0 0,2.908 z"
       style="fill:#000000;fill-opacity:1;fill-rule:nonzero;stroke:none"
       id="path7038"
       inkscape:connector-curvature="0" /><path
       d="m 204.94587,629.02681 -2.302,0 c 0.01,-0.198 0.051,-0.365 0.126,-0.502 0.083,-0.152 0.197,-0.272 0.34,-0.355 0.143,-0.085 0.301,-0.128 0.471,-0.128 0.25,0 0.46,0.082 0.628,0.243 0.082,0.076 0.176,0.198 0.282,0.37 l 0.426,-0.236 c -0.117,-0.203 -0.239,-0.359 -0.363,-0.469 -0.274,-0.239 -0.603,-0.358 -0.989,-0.358 -0.473,0 -0.847,0.168 -1.126,0.505 -0.219,0.27 -0.329,0.608 -0.329,1.015 0,0.473 0.14,0.851 0.421,1.135 0.263,0.27 0.599,0.404 1.009,0.404 0.371,0 0.683,-0.115 0.941,-0.342 0.31,-0.274 0.465,-0.671 0.465,-1.193 l 0,-0.089 z m -0.535,0.421 c -0.032,0.161 -0.089,0.296 -0.17,0.406 -0.174,0.23 -0.405,0.345 -0.694,0.345 -0.303,0 -0.545,-0.128 -0.725,-0.386 -0.072,-0.105 -0.121,-0.226 -0.146,-0.365 l 1.735,0 z"
       style="fill:#000000;fill-opacity:1;fill-rule:nonzero;stroke:none"
       id="path7044"
       inkscape:connector-curvature="0" /><path
       d="m 207.26777,630.12471 -0.421,-0.216 c -0.103,0.194 -0.24,0.291 -0.408,0.291 -0.109,0 -0.199,-0.039 -0.272,-0.116 -0.055,-0.057 -0.082,-0.127 -0.082,-0.209 0,-0.093 0.041,-0.172 0.124,-0.235 0.063,-0.048 0.18,-0.108 0.35,-0.179 0.267,-0.108 0.454,-0.203 0.563,-0.28 0.216,-0.155 0.322,-0.367 0.322,-0.639 0,-0.285 -0.104,-0.518 -0.315,-0.7 -0.192,-0.167 -0.424,-0.25 -0.694,-0.25 -0.493,0 -0.836,0.247 -1.031,0.742 l 0.445,0.184 c 0.058,-0.116 0.109,-0.203 0.152,-0.26 0.108,-0.143 0.255,-0.216 0.441,-0.216 0.164,0 0.291,0.055 0.382,0.165 0.07,0.086 0.104,0.184 0.104,0.294 0,0.121 -0.044,0.222 -0.131,0.301 -0.056,0.05 -0.172,0.113 -0.348,0.188 -0.271,0.114 -0.468,0.214 -0.59,0.301 -0.174,0.124 -0.26,0.306 -0.26,0.543 0,0.252 0.092,0.455 0.277,0.608 0.169,0.139 0.364,0.209 0.583,0.209 0.356,0 0.626,-0.176 0.809,-0.526"
       style="fill:#000000;fill-opacity:1;fill-rule:nonzero;stroke:none"
       id="path7050"
       inkscape:connector-curvature="0" /><path
       d="m 209.76257,630.12471 -0.421,-0.216 c -0.103,0.194 -0.24,0.291 -0.408,0.291 -0.109,0 -0.199,-0.039 -0.272,-0.116 -0.055,-0.057 -0.082,-0.127 -0.082,-0.209 0,-0.093 0.041,-0.172 0.124,-0.235 0.063,-0.048 0.18,-0.108 0.35,-0.179 0.267,-0.108 0.454,-0.203 0.563,-0.28 0.216,-0.155 0.322,-0.367 0.322,-0.639 0,-0.285 -0.104,-0.518 -0.315,-0.7 -0.192,-0.167 -0.424,-0.25 -0.694,-0.25 -0.493,0 -0.836,0.247 -1.031,0.742 l 0.445,0.184 c 0.058,-0.116 0.109,-0.203 0.152,-0.26 0.108,-0.143 0.255,-0.216 0.441,-0.216 0.164,0 0.291,0.055 0.382,0.165 0.07,0.086 0.104,0.184 0.104,0.294 0,0.121 -0.044,0.222 -0.131,0.301 -0.056,0.05 -0.172,0.113 -0.348,0.188 -0.271,0.114 -0.468,0.214 -0.59,0.301 -0.174,0.124 -0.26,0.306 -0.26,0.543 0,0.252 0.092,0.455 0.277,0.608 0.169,0.139 0.364,0.209 0.583,0.209 0.356,0 0.626,-0.176 0.809,-0.526"
       style="fill:#000000;fill-opacity:1;fill-rule:nonzero;stroke:none"
       id="path7056"
       inkscape:connector-curvature="0" /><path
       d="m 211.14357,630.58531 0,-1.699 c 0,-0.25 0.03,-0.431 0.09,-0.543 0.053,-0.098 0.134,-0.173 0.243,-0.225 0.102,-0.05 0.211,-0.076 0.329,-0.076 0.177,0 0.325,0.049 0.445,0.147 0.106,0.087 0.173,0.21 0.197,0.369 0.015,0.082 0.022,0.192 0.022,0.328 l 0,1.699 0.505,0 0,-1.753 c 0,-0.276 -0.034,-0.487 -0.102,-0.633 -0.099,-0.209 -0.256,-0.368 -0.477,-0.478 -0.175,-0.086 -0.372,-0.129 -0.59,-0.129 -0.379,0 -0.68,0.121 -0.902,0.365 -0.118,0.13 -0.195,0.274 -0.229,0.43 -0.025,0.124 -0.038,0.272 -0.038,0.445 l 0,1.753 0.507,0 z"
       style="fill:#000000;fill-opacity:1;fill-rule:nonzero;stroke:none"
       id="path7062"
       inkscape:connector-curvature="0" /><path
       d="m 213.88837,630.58531 0.507,0 0,-0.352 c 0.092,0.112 0.176,0.194 0.249,0.246 0.164,0.116 0.364,0.175 0.597,0.175 0.243,0 0.455,-0.064 0.636,-0.191 0.178,-0.124 0.291,-0.305 0.34,-0.544 0.023,-0.112 0.035,-0.258 0.035,-0.438 l 0,-1.804 -0.507,0 0,1.719 c 0,0.271 -0.032,0.459 -0.098,0.564 -0.099,0.162 -0.272,0.242 -0.52,0.242 -0.296,0 -0.499,-0.115 -0.611,-0.345 -0.08,-0.163 -0.121,-0.406 -0.121,-0.728 l 0,-1.452 -0.507,0 0,2.908 z"
       style="fill:#000000;fill-opacity:1;fill-rule:nonzero;stroke:none"
       id="path7068"
       inkscape:connector-curvature="0" /><path
       d="m 219.90627,630.58531 0,-2.843 c 0,-0.363 -0.032,-0.63 -0.097,-0.804 -0.111,-0.303 -0.311,-0.534 -0.601,-0.694 -0.226,-0.125 -0.483,-0.188 -0.769,-0.188 -0.433,0 -0.78,0.13 -1.042,0.386 -0.245,0.242 -0.374,0.559 -0.389,0.951 l 0.504,0 c 0.018,-0.214 0.063,-0.378 0.135,-0.492 0.081,-0.124 0.195,-0.22 0.34,-0.287 0.146,-0.069 0.301,-0.103 0.465,-0.103 0.341,0 0.593,0.119 0.756,0.356 0.129,0.18 0.191,0.443 0.191,0.789 l 0,0.424 c -0.289,-0.322 -0.636,-0.482 -1.04,-0.482 -0.412,0 -0.757,0.156 -1.035,0.468 -0.246,0.278 -0.368,0.629 -0.368,1.053 0,0.472 0.149,0.853 0.445,1.142 0.268,0.261 0.596,0.393 0.982,0.393 0.41,0 0.749,-0.161 1.016,-0.482 l 0,0.413 0.507,0 z m -1.464,-0.383 c -0.32,0 -0.575,-0.129 -0.764,-0.389 -0.136,-0.187 -0.205,-0.415 -0.205,-0.687 0,-0.326 0.09,-0.583 0.268,-0.769 0.192,-0.206 0.423,-0.308 0.694,-0.308 0.313,0 0.567,0.12 0.764,0.359 0.149,0.18 0.225,0.417 0.225,0.711 0,0.362 -0.106,0.638 -0.32,0.827 -0.192,0.171 -0.412,0.256 -0.662,0.256"
       style="fill:#000000;fill-opacity:1;fill-rule:nonzero;stroke:none"
       id="path7074"
       inkscape:connector-curvature="0" /><path
       d="m 222.43307,630.12471 -0.421,-0.216 c -0.103,0.194 -0.24,0.291 -0.408,0.291 -0.109,0 -0.199,-0.039 -0.272,-0.116 -0.055,-0.057 -0.082,-0.127 -0.082,-0.209 0,-0.093 0.041,-0.172 0.124,-0.235 0.063,-0.048 0.18,-0.108 0.35,-0.179 0.267,-0.108 0.454,-0.203 0.563,-0.28 0.216,-0.155 0.322,-0.367 0.322,-0.639 0,-0.285 -0.104,-0.518 -0.315,-0.7 -0.192,-0.167 -0.424,-0.25 -0.694,-0.25 -0.493,0 -0.836,0.247 -1.03,0.742 l 0.444,0.184 c 0.058,-0.116 0.109,-0.203 0.153,-0.26 0.108,-0.143 0.254,-0.216 0.44,-0.216 0.164,0 0.291,0.055 0.382,0.165 0.07,0.086 0.104,0.184 0.104,0.294 0,0.121 -0.044,0.222 -0.131,0.301 -0.056,0.05 -0.172,0.113 -0.348,0.188 -0.271,0.114 -0.468,0.214 -0.59,0.301 -0.174,0.124 -0.26,0.306 -0.26,0.543 0,0.252 0.092,0.455 0.277,0.608 0.169,0.139 0.364,0.209 0.583,0.209 0.356,0 0.627,-0.176 0.809,-0.526"
       style="fill:#000000;fill-opacity:1;fill-rule:nonzero;stroke:none"
       id="path7080"
       inkscape:connector-curvature="0" /><path
       inkscape:connector-curvature="0"
       id="path7084"
       style="fill:#000000;fill-opacity:1;fill-rule:nonzero;stroke:none"
       d="m 223.81437,627.67711 -0.507,0 0,5.106 0.507,0 0,-5.106 z" /><path
       d="m 227.35037,629.02681 -2.302,0 c 0.01,-0.198 0.051,-0.365 0.126,-0.502 0.083,-0.152 0.197,-0.272 0.34,-0.355 0.143,-0.085 0.301,-0.128 0.471,-0.128 0.25,0 0.46,0.082 0.628,0.243 0.082,0.076 0.175,0.198 0.282,0.37 l 0.426,-0.236 c -0.117,-0.203 -0.239,-0.359 -0.363,-0.469 -0.274,-0.239 -0.603,-0.358 -0.989,-0.358 -0.473,0 -0.847,0.168 -1.126,0.505 -0.219,0.27 -0.329,0.608 -0.329,1.015 0,0.473 0.14,0.851 0.421,1.135 0.263,0.27 0.599,0.404 1.009,0.404 0.37,0 0.683,-0.115 0.941,-0.342 0.31,-0.274 0.465,-0.671 0.465,-1.193 l 0,-0.089 z m -0.535,0.421 c -0.033,0.161 -0.089,0.296 -0.17,0.406 -0.174,0.23 -0.405,0.345 -0.694,0.345 -0.303,0 -0.545,-0.128 -0.725,-0.386 -0.072,-0.105 -0.121,-0.226 -0.146,-0.365 l 1.735,0 z"
       style="fill:#000000;fill-opacity:1;fill-rule:nonzero;stroke:none"
       id="path7090"
       inkscape:connector-curvature="0" /><path
       inkscape:connector-curvature="0"
       id="path7094"
       style="fill:#000000;fill-opacity:1;fill-rule:nonzero;stroke:none"
       d="m 228.55837,627.67711 -0.507,0 0,2.908 0.507,0 0,-2.908 z m -0.25,4.357 c 0.1,0 0.184,-0.033 0.253,-0.102 0.072,-0.07 0.107,-0.154 0.107,-0.252 0,-0.101 -0.035,-0.186 -0.107,-0.254 -0.069,-0.071 -0.155,-0.106 -0.256,-0.106 -0.1,0 -0.185,0.035 -0.254,0.106 -0.072,0.071 -0.107,0.157 -0.107,0.257 0,0.096 0.035,0.179 0.107,0.249 0.071,0.069 0.158,0.102 0.257,0.102" /><path
       d="m 231.09157,630.12471 -0.421,-0.216 c -0.103,0.194 -0.24,0.291 -0.408,0.291 -0.109,0 -0.199,-0.039 -0.272,-0.116 -0.055,-0.057 -0.083,-0.127 -0.083,-0.209 0,-0.093 0.042,-0.172 0.125,-0.235 0.063,-0.048 0.18,-0.108 0.35,-0.179 0.267,-0.108 0.454,-0.203 0.563,-0.28 0.216,-0.155 0.322,-0.367 0.322,-0.639 0,-0.285 -0.104,-0.518 -0.315,-0.7 -0.192,-0.167 -0.424,-0.25 -0.694,-0.25 -0.493,0 -0.836,0.247 -1.03,0.742 l 0.444,0.184 c 0.058,-0.116 0.109,-0.203 0.152,-0.26 0.108,-0.143 0.255,-0.216 0.441,-0.216 0.164,0 0.291,0.055 0.382,0.165 0.07,0.086 0.104,0.184 0.104,0.294 0,0.121 -0.044,0.222 -0.131,0.301 -0.056,0.05 -0.172,0.113 -0.348,0.188 -0.271,0.114 -0.468,0.214 -0.59,0.301 -0.174,0.124 -0.26,0.306 -0.26,0.543 0,0.252 0.092,0.455 0.277,0.608 0.169,0.139 0.364,0.209 0.583,0.209 0.356,0 0.626,-0.176 0.809,-0.526"
       style="fill:#000000;fill-opacity:1;fill-rule:nonzero;stroke:none"
       id="path7100"
       inkscape:connector-curvature="0" /><path
       d="m 232.47627,630.12471 0,-2.448 -0.507,0 0,2.448 -0.309,0 0,0.461 0.309,0 0,1.043 0.507,0 0,-1.043 0.52,0 0,-0.461 -0.52,0 z"
       style="fill:#000000;fill-opacity:1;fill-rule:nonzero;stroke:none"
       id="path7106"
       inkscape:connector-curvature="0" /><path
       d="m 233.98317,630.58531 0,-1.699 c 0,-0.25 0.03,-0.431 0.09,-0.543 0.053,-0.098 0.134,-0.173 0.243,-0.225 0.102,-0.05 0.211,-0.076 0.329,-0.076 0.177,0 0.325,0.049 0.445,0.147 0.106,0.087 0.173,0.21 0.197,0.369 0.015,0.082 0.022,0.192 0.022,0.328 l 0,1.699 0.505,0 0,-1.753 c 0,-0.276 -0.034,-0.487 -0.102,-0.633 -0.099,-0.209 -0.256,-0.368 -0.477,-0.478 -0.175,-0.086 -0.372,-0.129 -0.59,-0.129 -0.379,0 -0.68,0.121 -0.902,0.365 -0.118,0.13 -0.195,0.274 -0.229,0.43 -0.025,0.124 -0.038,0.272 -0.038,0.445 l 0,1.753 0.507,0 z"
       style="fill:#000000;fill-opacity:1;fill-rule:nonzero;stroke:none"
       id="path7112"
       inkscape:connector-curvature="0" /><path
       d="m 236.72787,630.58531 0.507,0 0,-0.352 c 0.093,0.112 0.176,0.194 0.249,0.246 0.164,0.116 0.364,0.175 0.597,0.175 0.243,0 0.455,-0.064 0.636,-0.191 0.178,-0.124 0.291,-0.305 0.34,-0.544 0.023,-0.112 0.035,-0.258 0.035,-0.438 l 0,-1.804 -0.507,0 0,1.719 c 0,0.271 -0.032,0.459 -0.098,0.564 -0.099,0.162 -0.272,0.242 -0.52,0.242 -0.296,0 -0.499,-0.115 -0.611,-0.345 -0.08,-0.163 -0.121,-0.406 -0.121,-0.728 l 0,-1.452 -0.507,0 0,2.908 z"
       style="fill:#000000;fill-opacity:1;fill-rule:nonzero;stroke:none"
       id="path7118"
       inkscape:connector-curvature="0" /><path
       d="m 242.74557,630.58531 0,-2.843 c 0,-0.363 -0.032,-0.63 -0.097,-0.804 -0.111,-0.303 -0.311,-0.534 -0.601,-0.694 -0.226,-0.125 -0.483,-0.188 -0.769,-0.188 -0.433,0 -0.78,0.13 -1.042,0.386 -0.245,0.242 -0.374,0.559 -0.389,0.951 l 0.504,0 c 0.018,-0.214 0.063,-0.378 0.135,-0.492 0.081,-0.124 0.195,-0.22 0.34,-0.287 0.146,-0.069 0.301,-0.103 0.465,-0.103 0.341,0 0.593,0.119 0.756,0.356 0.128,0.18 0.191,0.443 0.191,0.789 l 0,0.424 c -0.289,-0.322 -0.636,-0.482 -1.04,-0.482 -0.412,0 -0.757,0.156 -1.035,0.468 -0.246,0.278 -0.368,0.629 -0.368,1.053 0,0.472 0.149,0.853 0.445,1.142 0.268,0.261 0.596,0.393 0.982,0.393 0.41,0 0.749,-0.161 1.016,-0.482 l 0,0.413 0.507,0 z m -1.464,-0.383 c -0.32,0 -0.575,-0.129 -0.764,-0.389 -0.136,-0.187 -0.205,-0.415 -0.205,-0.687 0,-0.326 0.09,-0.583 0.268,-0.769 0.192,-0.206 0.423,-0.308 0.694,-0.308 0.312,0 0.567,0.12 0.764,0.359 0.149,0.18 0.225,0.417 0.225,0.711 0,0.362 -0.107,0.638 -0.32,0.827 -0.192,0.171 -0.412,0.256 -0.662,0.256"
       style="fill:#000000;fill-opacity:1;fill-rule:nonzero;stroke:none"
       id="path7124"
       inkscape:connector-curvature="0" /></g></svg>